<mxfile host="app.diagrams.net" modified="2024-02-29T07:49:46.791Z" agent="Mozilla/5.0 (X11; Linux x86_64) AppleWebKit/537.36 (KHTML, like Gecko) Chrome/121.0.0.0 Safari/537.36" etag="tAvvREOzrjBQEGpi25-6" version="23.1.8" type="github">
  <diagram name="Page-1" id="c7558073-3199-34d8-9f00-42111426c3f3">
    <mxGraphModel dx="1419" dy="2088" grid="1" gridSize="10" guides="1" tooltips="1" connect="1" arrows="1" fold="1" page="1" pageScale="1" pageWidth="826" pageHeight="1169" background="none" math="0" shadow="0">
      <root>
        <mxCell id="0" />
        <mxCell id="1" parent="0" />
        <mxCell id="rMVDz-vUEz1KjyfKddpo-157" style="edgeStyle=orthogonalEdgeStyle;rounded=0;orthogonalLoop=1;jettySize=auto;html=1;strokeWidth=3;" edge="1" parent="1" target="rMVDz-vUEz1KjyfKddpo-102">
          <mxGeometry relative="1" as="geometry">
            <mxPoint x="397" y="410" as="sourcePoint" />
            <Array as="points">
              <mxPoint x="397" y="695" />
            </Array>
          </mxGeometry>
        </mxCell>
        <mxCell id="rMVDz-vUEz1KjyfKddpo-158" value="&lt;font style=&quot;font-size: 15px; background-color: rgb(92, 255, 103);&quot;&gt;&lt;b&gt;&amp;nbsp; STORE CACHE&amp;nbsp;&amp;nbsp;&lt;/b&gt;&lt;/font&gt;" style="edgeLabel;html=1;align=center;verticalAlign=middle;resizable=0;points=[];labelBorderColor=default;" vertex="1" connectable="0" parent="rMVDz-vUEz1KjyfKddpo-157">
          <mxGeometry x="0.1348" y="-2" relative="1" as="geometry">
            <mxPoint x="97" y="-5" as="offset" />
          </mxGeometry>
        </mxCell>
        <mxCell id="rMVDz-vUEz1KjyfKddpo-98" value="" style="aspect=fixed;sketch=0;html=1;dashed=0;whitespace=wrap;fillColor=#2875E2;strokeColor=#ffffff;points=[[0.005,0.63,0],[0.1,0.2,0],[0.9,0.2,0],[0.5,0,0],[0.995,0.63,0],[0.72,0.99,0],[0.5,1,0],[0.28,0.99,0]];shape=mxgraph.kubernetes.icon2;prIcon=api" vertex="1" parent="1">
          <mxGeometry x="339.46" y="302.5" width="115.75" height="111.12" as="geometry" />
        </mxCell>
        <mxCell id="rMVDz-vUEz1KjyfKddpo-102" value="" style="image;sketch=0;aspect=fixed;html=1;points=[];align=center;fontSize=12;image=img/lib/mscae/Cache_Redis_Product.svg;" vertex="1" parent="1">
          <mxGeometry x="735.08" y="660" width="83.34" height="70" as="geometry" />
        </mxCell>
        <mxCell id="rMVDz-vUEz1KjyfKddpo-104" value="" style="image;aspect=fixed;html=1;points=[];align=center;fontSize=12;image=img/lib/azure2/databases/Azure_Database_PostgreSQL_Server.svg;" vertex="1" parent="1">
          <mxGeometry x="1130" y="186.75" width="60" height="80" as="geometry" />
        </mxCell>
        <mxCell id="rMVDz-vUEz1KjyfKddpo-107" value="" style="image;aspect=fixed;html=1;points=[];align=center;fontSize=12;image=img/lib/azure2/general/Mobile.svg;" vertex="1" parent="1">
          <mxGeometry x="-51.86" y="40" width="65.67" height="110" as="geometry" />
        </mxCell>
        <mxCell id="rMVDz-vUEz1KjyfKddpo-114" style="edgeStyle=orthogonalEdgeStyle;rounded=0;orthogonalLoop=1;jettySize=auto;html=1;exitX=1;exitY=0.25;exitDx=0;exitDy=0;exitPerimeter=0;strokeWidth=3;" edge="1" parent="1">
          <mxGeometry relative="1" as="geometry">
            <mxPoint x="846.7500000000005" y="50" as="sourcePoint" />
            <mxPoint x="1160" y="190" as="targetPoint" />
          </mxGeometry>
        </mxCell>
        <mxCell id="rMVDz-vUEz1KjyfKddpo-134" value="&lt;b&gt;&lt;font style=&quot;font-size: 15px;&quot;&gt;&amp;nbsp;INSERT &amp;amp; UPDATE&amp;nbsp;&lt;/font&gt;&lt;/b&gt;" style="edgeLabel;html=1;align=center;verticalAlign=middle;resizable=0;points=[];labelBorderColor=default;labelBackgroundColor=#57d5ff;" vertex="1" connectable="0" parent="rMVDz-vUEz1KjyfKddpo-114">
          <mxGeometry x="-0.1087" y="2" relative="1" as="geometry">
            <mxPoint x="-54" y="1" as="offset" />
          </mxGeometry>
        </mxCell>
        <mxCell id="rMVDz-vUEz1KjyfKddpo-115" style="edgeStyle=orthogonalEdgeStyle;rounded=0;orthogonalLoop=1;jettySize=auto;html=1;strokeWidth=3;" edge="1" parent="1" source="rMVDz-vUEz1KjyfKddpo-111" target="rMVDz-vUEz1KjyfKddpo-102">
          <mxGeometry relative="1" as="geometry" />
        </mxCell>
        <mxCell id="rMVDz-vUEz1KjyfKddpo-132" value="&lt;b style=&quot;font-size: 15px;&quot;&gt;&lt;font style=&quot;font-size: 15px;&quot;&gt;&amp;nbsp;CACHE CLEAR&amp;nbsp;&lt;/font&gt;&lt;/b&gt;" style="edgeLabel;html=1;align=center;verticalAlign=middle;resizable=0;points=[];fontSize=15;labelBorderColor=default;labelBackgroundColor=#ffcccc;horizontal=0;" vertex="1" connectable="0" parent="rMVDz-vUEz1KjyfKddpo-115">
          <mxGeometry x="0.3545" y="-1" relative="1" as="geometry">
            <mxPoint x="-1" y="-102" as="offset" />
          </mxGeometry>
        </mxCell>
        <mxCell id="rMVDz-vUEz1KjyfKddpo-111" value="" style="outlineConnect=0;dashed=0;verticalLabelPosition=bottom;verticalAlign=top;align=center;html=1;shape=mxgraph.aws3.android;fillColor=#8CC64F;gradientColor=none;" vertex="1" parent="1">
          <mxGeometry x="706.75" y="-30" width="140" height="150" as="geometry" />
        </mxCell>
        <mxCell id="rMVDz-vUEz1KjyfKddpo-112" value="&lt;font style=&quot;font-size: 15px;&quot;&gt;DATABASE&lt;br&gt;(cust_base_infos_table)&lt;/font&gt;" style="text;html=1;align=center;verticalAlign=middle;whiteSpace=wrap;rounded=0;glass=0;fillColor=#dae8fc;fontStyle=1;horizontal=1;fontFamily=Helvetica;fontSize=12;strokeColor=default;" vertex="1" parent="1">
          <mxGeometry x="1060" y="280" width="200" height="44" as="geometry" />
        </mxCell>
        <mxCell id="rMVDz-vUEz1KjyfKddpo-113" value="&lt;font style=&quot;font-size: 15px;&quot;&gt;BASE SERVICE&lt;/font&gt;" style="text;html=1;align=center;verticalAlign=middle;whiteSpace=wrap;rounded=0;glass=0;fillColor=#d5e8d4;fontStyle=1;horizontal=1;fontFamily=Helvetica;fontSize=12;strokeColor=default;" vertex="1" parent="1">
          <mxGeometry x="697.2099999999999" y="-110" width="155.08" height="30" as="geometry" />
        </mxCell>
        <mxCell id="rMVDz-vUEz1KjyfKddpo-116" value="&lt;font style=&quot;font-size: 15px;&quot;&gt;REDIS&lt;/font&gt;" style="text;html=1;align=center;verticalAlign=middle;whiteSpace=wrap;rounded=0;glass=0;fillColor=#f8cecc;fontStyle=1;horizontal=1;fontFamily=Helvetica;fontSize=12;strokeColor=default;" vertex="1" parent="1">
          <mxGeometry x="744.75" y="756" width="60" height="30" as="geometry" />
        </mxCell>
        <mxCell id="rMVDz-vUEz1KjyfKddpo-120" style="rounded=0;orthogonalLoop=1;jettySize=auto;html=1;exitX=0.995;exitY=0.63;exitDx=0;exitDy=0;exitPerimeter=0;entryX=0;entryY=0.5;entryDx=0;entryDy=0;entryPerimeter=0;verticalAlign=middle;edgeStyle=orthogonalEdgeStyle;strokeWidth=3;" edge="1" parent="1" source="rMVDz-vUEz1KjyfKddpo-98" target="rMVDz-vUEz1KjyfKddpo-111">
          <mxGeometry relative="1" as="geometry" />
        </mxCell>
        <mxCell id="rMVDz-vUEz1KjyfKddpo-121" style="rounded=0;orthogonalLoop=1;jettySize=auto;html=1;edgeStyle=elbowEdgeStyle;elbow=vertical;strokeWidth=3;" edge="1" parent="1" source="rMVDz-vUEz1KjyfKddpo-107" target="rMVDz-vUEz1KjyfKddpo-127">
          <mxGeometry relative="1" as="geometry" />
        </mxCell>
        <mxCell id="rMVDz-vUEz1KjyfKddpo-125" value="&lt;font style=&quot;font-size: 15px;&quot;&gt;CUSTOMER MOBILE APP GATEWAY SERVICE&lt;/font&gt;&lt;div style=&quot;font-size: 15px;&quot;&gt;&lt;br&gt;&lt;/div&gt;" style="text;html=1;align=center;verticalAlign=top;whiteSpace=wrap;rounded=0;glass=0;fillColor=#dae8fc;fontStyle=1;horizontal=1;fontFamily=Helvetica;fontSize=12;strokeColor=default;gradientColor=none;" vertex="1" parent="1">
          <mxGeometry x="229.99999999999997" y="266.75" width="334.68" height="26.5" as="geometry" />
        </mxCell>
        <mxCell id="rMVDz-vUEz1KjyfKddpo-126" value="&lt;font style=&quot;font-size: 15px;&quot;&gt;INTERNAL&lt;br&gt;myWorldLink&lt;/font&gt;" style="text;html=1;align=center;verticalAlign=middle;whiteSpace=wrap;rounded=0;glass=0;fillColor=#dae8fc;fontStyle=1;horizontal=1;fontFamily=Helvetica;fontSize=12;strokeColor=default;" vertex="1" parent="1">
          <mxGeometry x="-93.03" y="-26" width="147.44" height="51" as="geometry" />
        </mxCell>
        <mxCell id="rMVDz-vUEz1KjyfKddpo-127" value="" style="sketch=0;points=[[0,0,0],[0.25,0,0],[0.5,0,0],[0.75,0,0],[1,0,0],[0,1,0],[0.25,1,0],[0.5,1,0],[0.75,1,0],[1,1,0],[0,0.25,0],[0,0.5,0],[0,0.75,0],[1,0.25,0],[1,0.5,0],[1,0.75,0]];outlineConnect=0;fontColor=#232F3E;fillColor=#7AA116;strokeColor=#ffffff;dashed=0;verticalLabelPosition=bottom;verticalAlign=top;align=center;html=1;fontSize=12;fontStyle=0;aspect=fixed;shape=mxgraph.aws4.resourceIcon;resIcon=mxgraph.aws4.iot_events;" vertex="1" parent="1">
          <mxGeometry x="-49.99999999999997" y="700" width="60" height="60" as="geometry" />
        </mxCell>
        <mxCell id="rMVDz-vUEz1KjyfKddpo-128" value="&lt;font style=&quot;font-size: 15px;&quot;&gt;INTERNAL EVENT&lt;/font&gt;" style="text;html=1;align=center;verticalAlign=middle;whiteSpace=wrap;rounded=0;glass=0;fillColor=#d5e8d4;fontStyle=1;horizontal=1;fontFamily=Helvetica;fontSize=12;strokeColor=default;" vertex="1" parent="1">
          <mxGeometry x="-93.02999999999999" y="780" width="146.07" height="30" as="geometry" />
        </mxCell>
        <mxCell id="rMVDz-vUEz1KjyfKddpo-147" style="edgeStyle=orthogonalEdgeStyle;rounded=0;orthogonalLoop=1;jettySize=auto;html=1;strokeWidth=3;" edge="1" parent="1" source="rMVDz-vUEz1KjyfKddpo-141" target="rMVDz-vUEz1KjyfKddpo-146">
          <mxGeometry relative="1" as="geometry" />
        </mxCell>
        <mxCell id="rMVDz-vUEz1KjyfKddpo-148" value="&amp;nbsp; PRODUCER&amp;nbsp;&amp;nbsp;" style="edgeLabel;align=center;verticalAlign=middle;resizable=0;points=[];fontSize=20;labelBorderColor=#ff0000;html=1;horizontal=0;fontStyle=1;labelBackgroundColor=#ffa8a8;" vertex="1" connectable="0" parent="rMVDz-vUEz1KjyfKddpo-147">
          <mxGeometry x="0.1263" y="2" relative="1" as="geometry">
            <mxPoint x="2" y="69" as="offset" />
          </mxGeometry>
        </mxCell>
        <mxCell id="rMVDz-vUEz1KjyfKddpo-141" value="" style="sketch=0;points=[[0,0,0],[0.25,0,0],[0.5,0,0],[0.75,0,0],[1,0,0],[0,1,0],[0.25,1,0],[0.5,1,0],[0.75,1,0],[1,1,0],[0,0.25,0],[0,0.5,0],[0,0.75,0],[1,0.25,0],[1,0.5,0],[1,0.75,0]];outlineConnect=0;fontColor=#232F3E;fillColor=#1100ff;strokeColor=#ffffff;dashed=0;verticalLabelPosition=bottom;verticalAlign=top;align=center;html=1;fontSize=12;fontStyle=0;aspect=fixed;shape=mxgraph.aws4.resourceIcon;resIcon=mxgraph.aws4.iot_events;" vertex="1" parent="1">
          <mxGeometry x="-450.47" y="700" width="60" height="60" as="geometry" />
        </mxCell>
        <mxCell id="rMVDz-vUEz1KjyfKddpo-142" value="&lt;font style=&quot;font-size: 15px;&quot;&gt;EXTERNAL EVENT&lt;/font&gt;" style="text;html=1;align=center;verticalAlign=middle;whiteSpace=wrap;rounded=0;glass=0;fillColor=#dae8fc;fontStyle=1;horizontal=1;fontFamily=Helvetica;fontSize=12;strokeColor=default;" vertex="1" parent="1">
          <mxGeometry x="-496.22999999999996" y="780" width="151.52" height="30" as="geometry" />
        </mxCell>
        <mxCell id="rMVDz-vUEz1KjyfKddpo-146" value="" style="shape=image;verticalLabelPosition=bottom;labelBackgroundColor=default;verticalAlign=top;aspect=fixed;imageAspect=0;image=data:image/png,iVBORw0KGgoAAAANSUhEUgAAAoAAAAFoCAYAAADHMkpRAAA3tElEQVR4Xu3dB5wU9f3/8bmjF7GgKGLviZpiYqyxR38mpvk3xVgie3AH0kEFVBB7QwURK4q9R8QukSYoFooiEZAO0jt3N9/p3/937+IvP+e70b2bnb3dudfn8Xg+8PGRu5ndnf3Mm52dGUNKaQAAAKDx0BoAAABINq0BAACAZNMaAAAASDatAQAAgGTTGgAAAEg2rQEA+LbANkv8TctbKO2CTcv3UDoFj1x4kNV/35PEFfuep/zJvGLfi9LUf1+g/MYesO+xwfjrDlR/d2+lvfrZndSfzQPf034/AOSb1gAASMPfuKyJ9+HTnbwZT5/gvHjl38yUcYNZZjwrUsZsUWZsVFxFfg9HWat+Zpr62SfUn9e4E+/7o/qdP1e/e4/A3FYSXi4A5IPWAIDGzJv26C7OkxW/tYefdYcKbG+pALdAERnCXX1tV+aq3z3OfvAvQ9WyTvHnTWgTXg8AiJPWAIDGJHBESVC9pUX1DccdYQ858nrRc+ePVUBbL2o/vQuHt1xLB8vVot9eU6whR/Y3H7x4L7UuzQLP0dYTAHJJawBAY+F99toe9phLf22WGWOU6gwBLZ8CtQ5rlbvc8cNO8xdO5VNBALHRGgCQdN4Xb7V0XrrqVyp0vaBsSIevDIGsoaTXZZXVr8MI5+WrjvNXfdYsvP4AEJXWAIBECgIjMLcb3i0nHiYGdHpYhazl/w5b4QBWKNKHoL+yrj7stmD0+e2DwK95DNrjAoB60BoAkDTB9nVNvbG/O1h0NYaqULUjQ9gqbCljhdXdqPDGD+gUWFWl4ccHAHWlNQAgSdz37m1vP/CnbmaZMV0FKVsLV8UiZVSpx/Cm/WzvP7kfv9Ay/DgBoC60BgAkwqfjS53h554sKlqOVwFqixaoipSZMlaLPns85N1x7lFy5TyuIwigXrQGABQzf8OS5u6nL/3ELG/xqEgZm1Vo8sMhqsilv7foqce2zuzW+jZ/5Zx9/a1rmoafBwD4LloDAIqRv/XrUmfSqIPFkB/0N8uMJRmCUxKlLx3zoXXXr7qqx94xcC3teQGATLQGABSb4Llrm1h3nt65usyYrEJRVToYZQhLSRWIlLGluovxpn3v+WfK9x7hsDCA76U1AKAYBL5nBBuXtnZeGHCi6Np8nFlmVNaEIT0gNRa+CoLrRbc2D7lTHvxRsHll8/BzBgDf0BoAUOjcJR82cSaN/qkKPSNF7W3bwmGosVsh+uw20PngyYO9NQu4bAwAjdYAgIK1bb3hjynfy7z2iH5mmfGpSN4JHjmjnh+rOmW8J245qbM/tndb7bkE0KhpDQAoNIEjjKBqc0vrxl+cJzobHwgO92YrfVh4i0iVvmmPTR2jnsPmgedozy+AxkdrAEAhCea+3sZ+vOx0FWaeVor3Qs4NL30txJHuGzf/Ilj0fpPw8wygcdEaAFAQJkww3EeuONSuaHKXqL2sC4d7o0s/h184V+zdxxt5RSc5b57+vANoFLQGADSk9Nm93pIZO1nd9+kqLjY+KerbtxWqlLFD/NWYaPU//HdB5eamge9rrwOAZNMaANAgdmww/AWTdxWDDj9X1J7goQcX5JyZMl4WI35zUjB/cltpm/rrAiCRtAYA5FsgKps4D/71VCtlPKRCyaZwSEGs0ieKLLc7G3e6rww5OvzaAEgmrQEA+eS9M3x3647ThpllxiIVRpwMAQX5YYvyFjPtu88p92aP2yn8OgFIFq0BALHbsMRwZ4/rWN2tTVfRpemXguBXKNKX1lFBsPkH1T13+72/YvbOctsa/fUDUPS0BgDEyV8+ayf3uqN/bZYZ42vChh5CUAhSRpXygDvi3F8Gm1e2CL+OAIqb1gCAuNgP/vVo67ofP6iCxUrBZV0KX8pwlQX27afe4b4yeI/w6wmgeGkNAMgZ3zeCdYubipcG7WP273ilChVrBYd7i5EtypvNdQZ0vMyf9liHYNuKEu21BlBUtAYA5Ir3yUt7OBcbXVSA+FhxMwQLFBdLede9bs/z/EXT24VfbwDFQ2sAQFT+kk+aO2O7nCl67fasWWZszxAkUNy+tq4+bLR6jY/xt60rDb/+AAqf1gCAehHCCLZtbOrfevqBYsDeD4iUsVrxMoQHJIOtXt9l4qqDrg0eK28fbNnYRDqOvl0AKEhaAwDqKjC3l3q3djvI+rXRTwWD9Ake4bCA5PLMMmOW/Uujs/vi8I7hbQNAYdIaAFAX7vtjWtlj/v53FQImqTBQnSEgoHHYZnYtfcV5YcCZ7ty3m4e3EwCFRWsAQDaCZbNK3RuPO0b03OVZM2VsyBAI0PgEZvqw8IBO93p3HHdAYFVytjBQoLQGAHwXf8Pi5t78SYebZcZ9ghM88N9tEoMP7et9OemAYPv6JuHtCEDD0hoAkEngCMN+/fp97Nt+2Vft3D8VtbcNC+/0gf9LiM7Ge/b9f+5sT7iXy8YABURrAIDmo5Elzt2n/091mTFF1H7qR/hDtgKzzNhoVrR6wR39q2Pkwjf07QtA3mkNAPiGv2puK/etW08S5U2eFyljR3pnnmEHD2Qjfeu/jaK82b3uzJePDNYvbhre3gDkj9YAALnqs1LvnyN+IHrtcoPaaa/KsDMH6s0sM+ZZQ4663H93xH5yy2pOFAEagNYA0Lj5L17S1h7208vVjnq6SBl2eOcN5ED6k+TtVmfjXfv20/8sJw3RtkMA8dIaABqfwDYNf/2inexRfzhddC2ZpoJf+np+HO5FvFKGX/PVgm7NnnFevPJYtQ22Cnxf2z4B5J7WANC4BHPfaOK8NPBUtUN+WNmq7aSB/PhadDFucyff/0O5ZAaHhYGYaQ0AjcTs2YZ7Y9m+dr8O14iUsVDUfkk/vFMG8il97+hp9rU/6OYNLNtNbtqkb7cAckJrAEi2QOwo8dctamf23vtScZHxiVlmmBl2xEBDSV82Zru40Jgkbjzh9GDH+lbpryiEt2MA0WgNAAllVRr+nH/sLO486xwzZbyW3tFm2PkChcSsLjMesp4oPymY+VoLbZsGUG9aA0AyOc/1+anV1bjfrL2sC+EPxcJT2+wCu3PzG70pD+8X3q4B1I/WAJAcgWuVeB8+3d664dh+ZnmzL9XO1MmwgwUKX8oQoufO0+2bjv2bv/TjtoFra9s7gOxpDQAJsGWp4S94b/fK8uaXmGXG54ITPJAcvtqmp1Rd+8PT/IXv7SyrNujbP4DvpTUAFLdgw9KW7sjTzrbKjcf/fT2/8A4USII1dndjpPvohccFtsllY4A60hoAipfzdI8O4vpjRqvgt1ztIN0MO00gSdJ3qllg3X7qFe6Eu9uF3w8A/jutAaC4BOvmlvhvDd/f6dKyr+hSssLkcC8aGTNlOKJLkzluRcuL/Tnj95CbF2vvEwDfpjUAFA9v3ru7ONfu/heRMiZz316g5pqWz7l3/uRMf8Wc1uH3C4D/0BoACp+/dXWpff/5x4mr9n9C7fDWZdgRAo1TquYkkSXWsB+PsB6+8ODwewdALa0BoEAJYQTLFzbzH7xgf9Gn/XC1s9sg+J4f8N84KgiutHt1uNx//uqOgV3dRHtPAY2Y1gBQmNwnh+5nnW705LIuQJ3YZsqY7Lx45cXuZ6/tHH5fAY2V1gBQWNzZrzS3H+v8G7Os9F21M9uRYQcH4PttNvvu/pg1tvOJ3oqZfBqIRk9rACgMwZbVzd1+h/7Y7L3bE2bt9/y4fRsQjZs+LGz273iXf+OZnQJze9Pw+w5oLLQGgIYVbFnV1Jv58hHWVQdeq3ZYmzPsxABEt8C+84xu6r22XyB2cCFpNDpaA0DDsV6/cWdrxK97qJ3TdMXKsNMCkDvpr1S8ZY35+wXW+481C78fgSTTGgDyKwh8I/ji+abOnT872axo/pZZZmwVHO4F8iUwU8Zas+cuY9xrfnZksGx2afg9CiSR1gCQP/7KOc3d98ccJ1LGWMEJHkBD2yjKm93i/WvCIf6GxXw/EImmNQDkwaYVJd6rQw+yrjlsoFlmLMiwIwLQMNKXWHrfuv2UCv/1oR2k5+jvXyABtAaAmL3d17Cv/9nFVqrme35VgsO9QKFJvye3WF2Md+2rTztR3nef/j4GipzWAJB7ge8Z/tKP29mPl51pdil5U6RvXk/wAwpdoN6r282y0sfct277hb/ysxbh9zZQrLQGgByb+16p+/rNx5hlxii1M1mbYScDoPAtNnu1H+y9c9fBcuXnXDYGRU9rAMgdb+HU3a0rDuyvgt8stQPxMuxUABSLlGEqk6zrfnqpv3lVy/D7HSgmWgNANEH1lhJ/7YJdzCFHnS967DTLLDOE4HAvkBTpy8ZUi167vmuP/uMJ6r3eNrBNbQ4AhU5rAKi/YOoTraxHLjq7usx4UtQGv/DOA0AypP9Rt6E6ZYywXx58vJz7BoeFUVS0BoD6cSfcfaCdajbCLDOWiNpLSYR3GACSxzVTxlyn3559vU9f3jM8F4BCpTUAZM+v3FTiffH2ntaggy8X3VrPVTsDO8MOAkCSpWrOFq4SvXadbg0++P/56xe3leY2bV4AhURrAMjCjtWGP+fF9lVDDjvPLDM+EHziB6CWZ5UZT3v3nHNa8PmLbaRTrc8PoABoDQDfLbCqSp37f3uK1c14VA379Rl2AAAat/Q/CJdYPYy7nZcGHB6eIUAh0BoAMgh8I7CrS5xXh+1uDf3RMDXcVyrpizmHBz8A1DDLDEuUN58rbjimzP3omXZqhuizBWggWgOAzp/5/C52X+MSM2V8JjjcC6BuXOU9N9X6bH/5LO4mgoKgNQD8HzNmGN5jQw4Wl7e9Tw3wrRkGOwBk62tr0CFXefcN6SiXL9fnDZBHWgNALW/tV6VVvQ49RfzN+Kfg7F4A0aWvHbhD/Ml4qWroT48Izxwgn7QGAGn4a75sLbq16W6mjA0md/EAkEPpmaJ8bd/40zOCzSu4pRwahNYAGjt/8YftrcGHDRIpozI8uAEgh5bbd57exd+wuG14DgFx0xpAY+avmrurdc0Rt6rwl/6+H5/8AYhTesassW4+rk9gVTYNzyMgTloDaKz89YvamT3ajRG13/cj/AHIF1Pc8LMrg21rWoXnEhAXrQE0Rv7iGbuKqw64OcNgBoB82GLdfkovf91XHA5GXmgNoLHxl3/aWlz7w6vM2sO+4aEMAPmQPjFklXXryRcHOzZwOBix0xpAYxKsWdDE7L3npWrwbkgP4AxDGQDyJRApY6V1w89OllWbtXkF5JLWABoTd9DhJ6mhuzbDIAaAhvKZ99BfDg3PKyCXtAbQWHgznukoeu6SvshzePgCQEOyxeBDH/YWTm0fnltArmgNoDFw57za0uy92y0iffadPnwBoEGZZcYWs98+Ff7qBc3C8wvIBa0BJF1gVZXaz/e7QA3Z1eGhCwCFQoXAJe7kB48NzzAgF7QGkHT+C1fuKVI19/fVBi4AFJTyZs/K9x9vEp5jQFRaA0g60WfPClF7sWd92AJAIUkZ2527zjk7PMeAqLQGkGTV913QyUwZy7UhCwCFKGUE1Sljov36TXuG5xkQhdYAkspd9mkTMfSo69RAtbQhCwAFyiwzNou7zk75m1aUhucaUF9aA0gqZ8Ldh6tBOkNwwWcAxSUwU8Y/vPmT9wrPNaC+tAaQRMGKWU2cnq36qkFanWG4AkChq/T67PTbwHO1+QbUh9YAkshf+kknNUAnZBiqAFAsXlYBsCQ834D60BpAEtkjf3uqGp7bMwxUACgW29xXh3IYGDmhNYAkEuUt7sswTAGgqNg3H98zPN+A+tAaQNJ48ye1FF2brggPUgAoOoMOmeCvmN0yPOeAutIaQNJYd555gpniws9516VEip67SGvQwdK6/hhp3XyctG4/Rdp3nCatW06U1k2/kNbQo6U18AD193bWf74YdG0qRd8O0hp8qLRu+Jl6jMfXPEYr9BjFlftJ0WMn9TMl+u8A6iJlfOW8MOCn4TkH1JXWABLFsQzrtlOvUwHQ1QYpckgFm4oWKujsK60xl0p36kPSWzhV+l/Pk/76RdLfuEwGm1fIYMsq5Wv13ytlsGmF6i+V/rqvav6et3CK+rmHpf1EVykGHqh+X8vaEKktq4Gkw1731tK67RTpvDxIuh89J71ln0p/zfzax7hpee3jyvgYF6rH+IX0FqjHOPkBaavnSAw6qPYxEgpRFyljq/NMr67Sc/R5B9SB1gCSxH9paAvrMuMdwbX/4tNzZ2nd9wfpzRkvA7FD5qICu1p6896V9kN/k6J3e32Z+dSltObTPWf89TVBLgiC8OrWrxxLPcYJ0r7vj1L02V1fLpCZb19ijAo+GddcZph5QLa0BpAkzvih6Ys/f5ZhiCIXBh4onXeGy6Bqi4yjAqtKupPvl1b607LwsvOhvLm0x1xS8+md9P3w6kUvFSaDqs3SnfKQtK46QF8+kEnKeNObNW4fmWHmAdnSGkCSOK8OPUcNTE4AiUPfDtKdPlYGtinjrMCxpDvtUSn6d9TXIU5dSqXz2GXS37wqvEo5r8C1pPfxc5LDwchKypjrzR7H9wARidYAkkQFwHI1LLn+XwycN27O3eHQ76nAtaXz0sDa7+FlWJc4WHecWvP9xHw9Rt/3pD22TFsPQJMytnpv3vIrvgeIKLQGkBT+xqWlYviZw9TA9LQBimj6dZTBjo0yn5U+2UL021Nflzh0ayXdCfeo5BnDYd//Uumgmf5OYNGeEY188u0y42L1HtTmHpAtrQEkhdqZtq5OGVwAOgb2E+V5+2Tsfyv9Cdnd/6OtSyz6dpD+hsXhNYi90p84WjefoK8PEJYyrlIBsKnMMPuAbGgNIClUAGxvpoxntMGJaLo0qT3jN98BUFX6UzltfWJg3XqSenz5+/Tvm/IrN0n7kUu09QHCzDLjnqByI2cCo960BpAUKgDuowLgG+HBiYgG7C395bNlQ5Q3f7K+PjFwnqgILzovlT6hxnmhv7Y+QJgKgE+rANhKZph9QDa0BpAUKgAeoALge+HBiWjS18Tz1y6UDVHp5YryZto65Zrz+o3hReenfF+6r16nrQ8QpgLgOBUAW8sMsw/IhtYAksL714SD1ZCcGh6ciMa+6+yaO1w0RPkbl0vRby9tnXLNnXR/eNF5K/et22sOs4fXCfi/1Gx7WwXANjLD7AOyoTWApFAB8DA1JGeEByeise//fzLYtlY2RKVvs2YNPkxbp1zzPnwyvOi8lfv2HXm93A2K1kQVANvKDLMPyIbWAJKCABgP+6ELZbBjg2yICraultZ1P9bWKdcIgCgCBEBEojWApCAAxsN55GIZVG6SDVHBtjXSuv4YbZ1yzfvkhfCi81YEQGSJAIhItAaQFATAeDhjUzKojufev99X6UPP1k3HaeuUa96sceFF560IgMgSARCRaA0gKQiA8XAe76oC4FbZEBVsXyetW0/W1inXCIAoAgRARKI1gKQgAMaDABhvEQCRJQIgItEaQFIQAONBAIy3CIDIEgEQkWgNICkIgPEgAMZbBEBkiQCISLQGkBQEwHgQAOMtAiCyRABEJFoDSAoCYDwIgPEWARBZIgAiEq0BJAUBMB4EwHiLAIgsEQARidYAkoIAGA8CYLxFAESWCICIRGsASUEAjAcBMN4iACJLBEBEojWApCAAxoMAGG8RAJElAiAi0RpAUhAA40EAjLcIgMgSARCRaA0gKQiA8SAAxlsEQGSJAIhItAaQFATAeBAA4y0CILJEAEQkWgNICgJgPAiA8RYBEFkiACISrQEkBQEwHgTAeIsAiCwRABGJ1gCSggAYDwJgvEUARJYIgIhEawBJQQCMBwEw3iIAIksEQESiNYCkIADGgwAYbxEAkSUCICLRGkBSEADjQQCMtwiAyBIBEJFoDSApCIDxIADGWwRAZIkAiEi0BpAUBMB4EADjLQIgskQARCRaA0gKAmA8CIDxFgEQWSIAIhKtASQFATAeBMB4iwCILBEAEYnWAJKCABgPAmC8RQBElgiAiERrAElBAIwHATDeIgAiSwRARKI1gKQgAMaDABhvEQCRJQIgItEaQFIQAONBAIy3CIDIEgEQkWgNICkIgPEgAMZbBEBkiQCISLQGkBQEwHgQAOMtAiCyRABEJFoDSAoCYDwIgPEWARBZIgAiEq0BJAUBMB4EwHiLAIgsEQARidYAkoIAGA8CYLxFAESWCICIRGsASUEAjAcBMN4iACJLBEBEojWApCAAxqNRBMDZr4YXnbdy371bivLm2joBIQRARKI1gKQgAMajUQTAeRPCi85buf8cKUVFS22dgBACICLRGkBSEADj0aABcMcGaQ0/U1unXPPnTw4vOm/lvnevFN0IgPheBEBEojWApCAAxqNBA2DlJmmPPE9bp1zzV34WXnTeyp14nwqArbR1AkIIgIhEawBJQQCMR4MGQLVc+5GLtHXKKRW+go3LwovOW7lTH5bi8p309QK+jQCISLQGkBQEwHg0aAC0q6Xz0kBtnXLJuvaHMti2NrzovJU34xkperfX1gsIIQAiEq0BJAUBMB4NGgB9T7rvj4n1LFn7ob+qx7ctvOi8lTf3LSmu2EdbLyCEAIhItAaQFATAeDRkAEyXt+gDKa45QluvnOjaVLqT7peB54YXm7fyV30uraFH6+sGfBsBEJFoDSApCIDxaOgAGLiWdF65VoqKFtq6RdKlRFrDfyX9tV+FF5nfcm1pP3ShWqcSfR2B/yAAIhKtASQFATAeDR0A0+VvXpn7kHT1YdL97A31y73w4vJe3vzJUvTaTV9H4D8IgIhEawBJQQCMRyEEwHT5m1ZI5+VBUvTtoK1jnXRtJu3hZ0lv4VQZuE54MQ1S6UPQ7qTR0R8bkowAiEi0BpAUBMB4FEoADIKgJij5W7+W7odPSvuBP0vr+p9JK/39wIEHSnHlfrUnU3zjyv2lGHRQzf+3hv1EWiN+I523bpP+8tkysM2a31dIVfPY1i2qWUf7jjOkde0Patb/W4+rf8dv69ehNjTW2EOK3rspu0rRc2elnRSXt5Wie5va6wym7zaSPpkmfd/hLqXa64yCRwBEJFoDSAoCYDwKJQBqlQ6EVnXNJ4PpUOcv+kD6C6bUWjhV+otn1JxgkT58HFhV6VOKw7+hYCvwPOlvW6PWf656XNNrHpM3f5L0vnhHenPf/o/Z46Q36x+1Zr4svY+elp4Kx977Y6Q75cGau4y4E+6R7tu3S/eNm6U7fph0X7lWOi9eIZ3n+kjnqW7q9e0inUf/Lu2H/ybt+y+Q9qjfS1uFZfuus1QQPU1at5wkrZt+URuihxwprasPqw3cAzrVHrYub6ZtM4gFARCRaA0gKQiA8SjYAEhFrsBzZOAIGYjKmtc42LGx5pqIwZavay6OHaxfJP0186X/9Tzpr5wj/WWfSn/JR9L/anrN7fPSgdT99KWakGmrICkGHqRtP8gZAiAi0RpAUhAA40EApL6rvjk0X/Np7LY10v3oGWndcgKfDOYeARCRaA0gKQiA8SAAUnUtf9taaT/Wufb7hhm2KdQLARCRaA0gKQiA8SAAUvUpf9Nyad3zP9r2hHojACISrQEkBQEwHgRAqj4V+L50Z4+Tot+e2jaFeiEAIhKtASQFATAeBECqvpX+TqA18jxtm0K9EAARidYAkoIAGA8CIFXv8j3pPD9Aiq5NtO0KdUYARCRaA0gKAmA8CIBUlHIm3ifF5W207Qp1RgBEJFoDSAoCYDwIgFSU8mb+o/YOJRm2LdQJARCRaA0gKQiA8SAAUlEqfbHomtvUZdi2UCcEQESiNYCkIADGgwBIRSn/y/c4Ezg3CICIRGsASUEAjAcBkIpSBMCcIQAiEq0BJAUBMB4EQCpKEQBzhgCISLQGkBQEwHgQAKkoRQDMGQIgItEaQFIQAONBAKSilHpfStG3g7Zdoc4IgIhEawBJQQCMBwGQilLeZ69L0Wd3bbtCnREAEYnWAJKCABgPAiAVpbw5rxEAc4MAiEi0BpAUBMB4EACpKEUAzBkCICLRGkBSEADjQQCkopT32RsEwNwgACISrQEkBQEwHgRAKkpxEkjOEAARidYAkoIAGA8CIBWluAxMzhAAEYnWAJKCABgPAiAVpQiAOUMARCRaA0gKAmA8CIBUlCIA5gwBEJFoDSApCIDxIABSUYoAmDMEQESiNYCkIADGgwBIRSkCYM4QABGJ1gCSggAYDwIgFaUIgDlDAEQkWgNICgJgPAiAVJQiAOYMARCRaA0gKQiA8SAAUlHKXzRdBcCO2naFOiMAIhKtASQFATAeBEAqSvmLP5Ci/97adoU6IwAiEq0BJAUBMB4EQCpKEQBzhgCISLQGkBQEwHgQAKkoRQDMGQIgItEaQFIQAONBAKSiFAEwZwiAiERrAElBAIwHAbABKghkYFVJf91X0l81NzsbFsvAEeHf1OBFAMwZAiAi0RpAUhAA40EAzFOlQ5/vSX/TCumMGyKtm34hrcGHSmvQQdm5+jBp3X6qdN65U/rb1qhf54eX0CDlL58lxYBO2naFOiMAIhKtASQFATAeBMD8VGBuk+7EUVJcsa/2GtTZVftLb/arMrCqw4vJe/kr56jHtI++jqgrAiAi0RpAUhAA40EAzE85b90uRa9dtee/3q7cV7oznpaBY4UXldciAOYMARCRaA0gKQiA8SAAxl9e+mLJffbQnvvIhhypAtjnNYeXG6oIgDlDAEQkWgNICgJgPAiA8VZgbpfWyN9oz3uu2GNTMvAb7vuABMCcIQAiEq0BJAUBMB4EwHjLWzBFikEHac97zvRuLwNRGV5s3ooAmDMEQESiNYCkIADGgwAYb7nvj5GiRzvtec8lf8Wc8GLzVv7qL6W4cj9tnVBnBEBEojWApCAAxoMAGG+579wpRXlT7XnPJe/zN8KLzVv5axfWnJUcXifUGQEQkWgNICkIgPEgAMZb7tt3SNE17gD4enixeSsCYM4QABGJ1gCSggAYDwJgvJWfAMgngAlAAEQkWgNICgJgPAiA8VZeAuD8SeHF5q0IgDlDAEQkWgNICgJgPAiA8VY+AqC/YEp4sXkrAmDOEAARidYAkoIAGA8CYLxFAESWCICIRGsASUEAjAcBMN7KSwBc8lF4sXkrAmDOEAARidYAkoIAGA8CYLyVlwC4bGZ4sXkrf8NSFQAP0NYJdUYARCRaA0gKAmA8CIDxVtIDYLB5pbQGHqitE+qMAIhItAaQFATAeBAA4628BMBVc8OLzVsRAHOGAIhItAaQFATAeBAA4y134igpurXSnvdc8jetCC82b0UAzBkCICLRGkBSEADjQQCMt7xZr0jRfy/tec+ZPu1l4NjhxeatCIA5QwBEJFoDSAoCYDwIgPGWv2GJtG78ufa854r90IUy8P3wYvNWBMCcIQAiEq0BJAUBMB4EwHgrCHzpTrhHivLm2nMfWb+O0lswWS0jCC82b0UAzBkCICLRGkBSEADjQQCMvwKxQ9r3/laKLqXa819vPdpJ9/Wb1O+uDC8ur0UAzBkCICLRGkBSEADjQQDMT3lfz5PWqN9JUd5Mew3qrLy5dMYNkcH2deHF5L0IgDlDAEQkWgNICgJgPAiA+an09/T8rWulkz4cPOiQmk/wRLeWUlQ0z073VlL02lVaN58gvU9flIFVFV5EgxQBMGcIgIhEawBJQQCMBwEw/+VXbpLenFel+85w6b52fXYm3if9r6YVTPD7pgiAOUMARCRaA0gKAmA8CIBUlCIA5gwBEJFoDSApCIDxIABSUYoAmDMEQESiNYCkIADGgwBIRalg62oVAA/StivUGQEQkWgNICkIgPEgAFJRKqjcJK3Bh2jbFeqMAIhItAaQFATAeBAAqShFAMwZAiAi0RpAUhAA40EApKIUATBnCICIRGsASUEAjAcBkIpSwY6N0hp0sLZdoc4IgIhEawBJQQCMBwGQilLBlq85Czg3CICIRGsASUEAjAcBkIpSXAYmZwiAiERrAElBAIwHAZCKUgTAnCEAIhKtASQFATAeBEAqShEAc4YAiEi0BpAUBMB4EACpKEUAzBkCICLRGkBSEADjQQCkopS/aYUUBMBcIAAiEq0BJAUBMB4EQCpK+esXSXHV/tp2hTojACISrQEkBQEwHgRAKkr5axZIceV+2naFOiMAIhKtASQFATAeBEAqSvlfz5Xiin207Qp1RgBEJFoDSAoCYDwIgFSU8pfPlGJAJ227Qp0RABGJ1gCSggAYDwIgFaX8xR9K0X9vbbtCnREAEYnWAJKCABgPAiAVpfyFU6Tot5e2XaHOCICIRGsASUEAjAcBkIpS3hfvSNG3g7Zdoc4IgIhEawBJQQCMhzM2JYOqLZKi6lPezH9I0Xs3bbtCnREAEYnWAJKCABgP++GLZLBjo6So+pQ77TEperTTtivUGQEQkWgNICkIgPGwH/iTDLavkxRVn3In3CNF99badoU6IwAiEq0BJIUKgIeoADgtw+BEBPbI38hgyypJUfUpZ/wwKSpaaNsV6uxdFQDbyAyzD8iG1gCSQgXAA1UAnJRhcCIC6+bjpb9ukaSoulYQ+NJ+6nK1HZVo2xXqRs228SoAtpYZZh+QDa0BJIUKgPuoIflmeHAiokEHSX/l55Ki6lrps8ft+y/QtynUmZptz6oA2EpmmH1ANrQGkBTevAl7iJTxQnhwIqKKltJfMCX9cY6kqLqUv+4rad12ir5Noc5UABytAmALmWH2AdnQGkBSqADYtjplPBgenIjOfeculf8IgFQdSm0v3vyJUly1v7Y9oR5SxnXBjo3NZIbZB2RDawBJ4S2f3cQcfOhNalj62vBEJNatJ8nAcyVFZVuBY0v3rdvU9lOqbU+os8DubKRUACyVGWYfkA2tASSJ8+rQHmpYVmYYoIiiazPpLflYUlS2FWxdLa0bj9W3JdRHpffAJedKq1qbeUC2tAaQJCoA/kENy9UZBigiskafL4PqLRwKpr630tuIk/70r2tTbTtCPaSMxd7sccfJDDMPyJbWAJLEfXXoUWpYfqENUERX3lzaT5RLf9MKQiCVudR2kb5toDtptBSXt9G3IdRPynhPBcADZYaZB2RLawBJ4r01tI3oarynhmagDVFEV9FC2vf9QXrzJshAVEqK+t9ybenPnyztp7pL0ae9vu2gvgIrZTzizx7HRaARidYAEmXTV4Z9w49HqKHpZRikyJWBB0h79PnS/edI6S2fJQOrWlKNrwK7WnpLP5LuxFHSfuAv0hp0MId9c6/aGX3+VXL7On3eAXWgNYCksYefeY4amnaGQYqcKpGivJkU3VpJ0WsXaV1zmLTuPE3a9/1R2mMulc7YlHSeKJfOs71R7B7vUvN62o9cIq1Rv5PWrSfXhr2e7Wpf//R2wN0+YmGmjOX2CwNODc85oK60BpA07sR724oupevCgxQAio15oTHNHTlg5/CcA+pKawBJJCpaPB8epABQdPodcqucPVubcUBdaQ0gicTA/X8rOAwMoIiZZYYj7vvDkeH5BtSH1gCSyF/6yX5qeE4PD1QAKBZqhk0JPLckPN+A+tAaQBIFiz9pYV1qDBV8CgigODnOpUYXFQC1+QbUh9YAEsk2DfeFq443U8Y8wTUBARSXQM2uD71pYw+TQaDPN6AetAaQWDNfbWr37Xi34FNAAEXELDOqxOAjBngr5zbV5hpQT1oDSDLvwfOPVAP16/CABYACFagA+LHzxo2Hh+cZEIXWABJt3YIS0WvX4emhmmHQAkBhSRm2dfNxff0tq0q1eQZEoDWApPNvOWcfNVhnaYMWAAqM2aV0mnz2ihbhOQZEpTWApPMrNza1Rp7XWf3LelN42AJAAdlgP335ueEZBuSC1gAaA+f9x/ao7mw8qwasl2HoAkBDc5QR/oo5bcPzC8gFrQE0BoHnGM4r1xwqKlrMyTB4AaAheWavXd50P3jiwMD3tPkF5ILWABoT55rDf6+G7eYMAxgAGkbKWOY++JdTw/MKyCWtATQmwSfPt6juYgxTQ7daG8IAkH9C9NqtXC7+kLN+ESutATQm6cMrzsfP7W723Hm0+le3mWEYA0B+pIwq0XePG/wVc9qEZxWQa1oDaIy8j57tKHq3Hyu4PiCAhlFtXX3YPf6i6buH5xMQB60BNFbuzJf3Uf8Cf0cQAgHkW/+9x/hfvd8xPJeAuGgNoLEKgsBwZzx9uOjW6mUVBNOXYCAIAohTkL7Th9ljpyf9lZ93CM8kIE5aA2jsvE9e2Fv02eMBvhMIIGZbrMGH3u4t/aR9eA4BcdMaAFQI/PSl9qJrszvMMmNbhqENAFFtt648oLe/cOpu4fkD5IPWAFDL//Dpne1U056irGSV4HAwgOgCMz1LOhtLq8qbXOp/PY97/KLBaA0A3+a8dv1RoqL5W4JrBQKIQIW/HWbv9k+7ZacdIefO1WYNkE9aA4DOff7qjvZZNReMXqT44cEOAN8hPTP+ZXdrcaXz4VO7hucL0BC0BoAMqquNYNq7rcU9vz7RTBkvCw4JA8iCmhfC7Gw8bj/T6/hg/sTm2mwBGojWAPDfBa5t+NvWthD9D/5/4kJjqkgZleGBD6DRS/8DcZsoNybbd591VmBVNw08V5snQEPSGgCy8MUXhndn705On44D1KCfp3gZdgIAGh/fTBkzxJAf9fLH9+4gxRZ9fgAFQGsAyF7wr4ml7vjrTxCXGaNEytiSYWcAoLFIGevVLBjufvDEUd6yWU3C8wIoJFoDQN2kDwsHW9e0sh+++DhRXvKu2hFsF5woAjQW6cO9W0T3ls/Zr13/czULWgaBr80JoNBoDQD157/arY246fiy6pQxSe0UrAw7CwDJkA5+lWaZ8U9rxK8vkRNu5RM/FBWtASAab/WXpc7URw4VvXa7Ru0gVmbYcQAocir4LRTDftLLff+RA/3t60rCcwAodFoDQG746xe3cCeOOkZUtByrdhibBJeOAYpbyvCVdaJ729HeKQf/wN/ydbPw+x4oFloDQI5NfajEvve8s8wy412189gqCIJAMdokurV50bn3jyfILyaUau9zoMhoDQC5F7iW4Uy4a29r+JndVRD8SBACgWJhK1PsMZem3KljuIsHEkNrAIiPv3lVM3/pxwea5c3vEiljs6g9W5gwCBSWoOZwb5l6j17e/Ar/uYv2C6o2Nw2/n4FipjUA5MHKeSXezWccLXrv/qiZMtZm2AEBaBjpf5Att646YLQ//IyDpWPp718gAbQGgPxxP3ymlf1U9wtVCHxHpIzqDDsjAPmSvrVjlybjnFeHnuPNn9Qq/H4FkkRrAMivwKos9cb13c+63OihdkArtJ0SgLilz+6dZ/cyyrz3R+8dfo8CSaQ1ADQA3zUCxyzx7/3tXtbAg+42U8Yys8xwM+yoAORO+gSPJWLoUUPFi/13Sb8HJXfxQCOhNQA0LH/F7Ob2c31PNfvuMVbtnLZl2GkBiEj9A2udGHLk/e5zfY8PdmzgLh5odLQGgMLgzX2zvdvPuFTtrD4UfBoI5IqjTHL77X2ev3zmLuH3HdBYaA0ABSIIjGDHulLr9Zs6VA8+tIdZZiwXtYeswjs0AN/PEhUtPhODD+3sfvLi7sGOjdy+DY2a1gBQmJwnuh5l3XjsvSJVEwTT1ygL7+AA6NKfni+0zjaGO+OHdQq/r4DGSmsAKFz+11+0da855iyzs/GK4NNA4PsIq7PxsDvyD6f6zz3aSvqc4AF8Q2sAKHBbVhvel+/tbvbtcLGoaDnLTBkiw44PaJTMMiNQ7wlTXL7TB2LAfr8P1i5sJys36e8joJHTGgCKhzPpvt2tP7a9Vu305ovaL7drO0SgEXHUe2GmNbhTD+/zN7lvL/AdtAaA4hI8NbaJ+9hlJ1tlxn1qB7gpw04RSLr07dtW2WXGcPfVa38iv3pDe58A+DatAaAIVW0x/GWf7mzd8JPTRXnzby4bk94phneUQHKk1DaeMhxR3mKc/cCfTwqWfdqWe/cC2dEaAIqbt3x2a/uagy4TXYzpaudoaTtNIAlSxg5lon3djy8IzO2l4fcBgO+mNQAkwLIphvfGsEOc8qa3qJ3kYsFlY5Ac6W15fvWAfft444ftJ9cu0Ld/AN9LawBIjmDBpFb20z1OVjvMpwSXjUHxS98a8QF3wt2/8JZ92jS8vQPIntYAkCyB7xmBazWx7zr9V6KrMUmkanaifD8QxSL9Pb/Noqz0DfuZ3seobbk0CLieHxCV1gCQUNUbDW98vz3F0KN7mWXGRzU7Vn1nCxQS20wZE607zyjzXxrcTtumAdSb1gCQbN6KWU3cDx4/Wu1c71I2ZNjpAoVgjei9+2Bv1j8O9jcsaRLejgFEozUAJF/6EFqwY30LZ/ywn4uKls+LlLFV8IkgGl76cO9qq+cuD3nnHnZksPhfzcLbLoDc0BoAGpfg9ZubWvf8+lIzZfxT7YCrMuyUgfjV/iPkDeeRS86R05/iEz8gZloDQOPjb1tb6k4fe5C47ujeZpmxRNs5AzGpuXdvmfGpNfK8rmob7BS4trZ9Asg9rQGg8Qq2rm7m/fKgH4ge7e5XO+e1gusHIh7prxu4ZspYLXrtdpt/yzkdg8pNXNYFyCOtAQBy3tulzoMXnCy6tXpZ7ag3Z9iBA/WXMtaI/h0fNkdf8FNvzQLu4gE0AK0BAN9wpz3a3n7k4i5qpz1NcbQdOVA3QoW/d5yXB/3Jm/Nam/D2BiB/tAYA/F9B5eam/qgL97MqWg0yy4yNiic4YxjZS5/Z65llJUut7q0q/PFD9w5sk0/9gAamNQAgk8CqMqpG/OpwMfCA+9UOfYVCCMT3cZVF1tAf3SkeubRDeJsC0HC0BgB8F//L91q7r11/rtqxvy64bAz+ux2if8dH1LZyarB6XovwdgSgYWkNAMiG9+69+9iXGOVmmbFAcEgY/5H+isAnzkXGX72F03YLbzcACoPWAICspO8m4jol4qV+O4uhR99gpoylghNFGjPLLCuZL248rqs78f6d1LahtpFA324AFAStAQB15W9b29QefNaJ4nzjgfSJIhnCAZLLFyljmXWucbcz6tIfhbcNAIVJawBAvSxdavjTxu3qdu/wexUI3he1hwLDYQHJkj7J4xXv1uNO9d8bt5PcskXfLgAUJK0BAFEElZtL3E9eaC+uOaKLqGjxuQoIdobggOJWJXruPN265ogLvBWzd5Jiu7YdAChsWgMAcsUZN+QA63LjbpEyFqevBZchSKC4uOp1/MKuaDfInT52z/DrDaB4aA0AyBnPMfyZj7f2RvzuDOsy4zHBSSJFyywzNld2NkZaT/c6Pvj4Fe7bCxQ5rQEAOVe52QjWL24nrtj3fLNHuxkiZZiCS8cUA1+pFL3bT7SHn3GCv35xm/QFwbXXF0DR0RoAECdvzmu724M79VHBYraoPYkgHDpQAMyUYYvOxkT7miMv81d90Tb8OgIobloDAGK38A3DeeWan1ddZtxjlhlrBJ8GFpL0vXuXVFU0u86bcO/BctHH+usHoOhpDQDIh8ARhrd89k7O6At+Kbq1ftOsPVuYINhw1HNfsqO6e5vH7H9c/XNv5ZyW4dcMQHJoDQDIt6BqczNx/U8uEl2MKYL7C+dbOnRvsS4z3rZH/f6s8GsDIJm0BgA0iLVfGt6bNx4ortj7ShVIvvp3MAmHFeSYmTI+tIb9vMIfd+NespILOQONhdYAgIbkL5/ZzHln+PFmmfGoCig7woEFOZIyNqnn+A5v9vjD/TULmoRfBwDJpjUAoKEFQWAEjzxc4vQ9/lgrVfKuCixbBJ8I5kL6BI8NVve2j7mdj/9hMGVySfq5Dj//AJJPawBAIfFfHLybdcfpFSq4TFW4kHT9Varn7037wb9eFLw3qln4eQbQuGgNACg0/vrFTbzZ4w8TPXYZZpYZGzKEG3y3ZdYNx1R4c8bvF1RuLA0/vwAaH60BAIUqWPtFM++OHx5t9tzlMTNlrBUcFv6vVFD2lGWi/17DvVE/3z8QO/ieH4D/pTUAoNDZ059sZj9y6e9EynhHhZ3t4fDT6KWMTeLyNk+LJ8tPchZO4r69ADRaAwCKQc2FpD98cj/7nnO7q8AzVwtBjVP6O5JTnSe7XezNfLl9+DkDgG9oDQAoJkHV5qb+PWd3MvvsXntbuVTN/YUb06Hh9GO11WNfKfp17OU/2qNDICo53AvgO2kNAChG/pp/NREP/eU40W+vxxrRiSKBeqxLxLU/GCEe/svhgV2tPS8AkInWAIBi5n42vp3z8sCLVDCapAKSlSE0JUW1eozj3ImjzvAWf9g6/DwAwHfRGgBQ7ALbLPVfGrKPVdG2lygrWanCkpchQBUlFfps0bXJHKdL24v9aU/uGX7sAJANrQEASWI/eMm+1nU/utdMGUtFqoiDYKrme35fWredfI0z/rqdwo8TAOpCawBA0virvmjlDD/2LNHFeEqFKVMLV4Uuffu2CmOE89DvfxHs2MBlXQBEpjUAIJE2fWX4c9/cw0kZl6pA9bkKVr4WtAqPp9Z1itdvr7P9RVPbyR1r9McFAPWgNQAgsYLACALfcCePbmvdcmIXFbDmKVWisC4bk16X7eLyNpOtW0/8o/flhJbpddYeCwBEoDUAoLFwX77qcOv2UwaaZcZEs+HPGE5f0mWr8rr9wJ96eu+N2CO8vgCQK1oDABoTf92ipt5nrx1UWdH67yqEvSEa5tZy6esWPlN9zVG/UevSKdi+vjS8ngCQS1oDABqjoHpraVC9pZX7XL9DrCFHXiGu2GeSSBnLVTDboqTvLhIObfVlK5vU715iDT7kNbWsy7xJ9++jlt0yEDu09QKAOGgNAIA0/KWfNHeeqDjaebLi7/aIX48wU8Y4s8yY8e9QuENkd23B9N/Zpn5mofrZaerPl+wxl96sfuef1e8+xN+2lk/6ADQIrQEA+LZgy+om7oyn91B+6M14+lTlD96Nx1wiOhsDVLC7XgW726tTxl1pKvDdqnrDrM5GL2/0+Repv/s75UT1s4erP3cLbLMk/PsBIN+0BgAgCzvWG8HG5U39TctbBJuWt1R/tkr793+3UP+viazeqv8cABQArQEAAIBk0xoAAABINq0BAACAZNMaAAAASDatAQAAgGTTGgAAAEi2/w+Ddw8hhWnzqQAAAABJRU5ErkJggg==;clipPath=inset(0% 21.67% 0% 27.33%);" vertex="1" parent="1">
          <mxGeometry x="-465.74" y="-190" width="90.53254437869822" height="100" as="geometry" />
        </mxCell>
        <mxCell id="rMVDz-vUEz1KjyfKddpo-150" value="" style="endArrow=classic;html=1;rounded=0;entryX=0.5;entryY=0;entryDx=0;entryDy=0;entryPerimeter=0;edgeStyle=orthogonalEdgeStyle;strokeWidth=3;" edge="1" parent="1" source="rMVDz-vUEz1KjyfKddpo-146" target="rMVDz-vUEz1KjyfKddpo-111">
          <mxGeometry width="50" height="50" relative="1" as="geometry">
            <mxPoint x="-289.02667999999994" y="-153" as="sourcePoint" />
            <mxPoint x="776.75" y="47" as="targetPoint" />
            <Array as="points">
              <mxPoint x="580" y="-140" />
              <mxPoint x="580" y="-60" />
              <mxPoint x="777" y="-60" />
            </Array>
          </mxGeometry>
        </mxCell>
        <mxCell id="rMVDz-vUEz1KjyfKddpo-151" value="&lt;font style=&quot;font-size: 20px; background-color: rgb(205, 255, 199);&quot;&gt;&amp;nbsp; CONSUMER&amp;nbsp;&amp;nbsp;&lt;/font&gt;" style="edgeLabel;html=1;align=center;verticalAlign=middle;resizable=0;points=[];labelBorderColor=#1a9e00;fontStyle=1" vertex="1" connectable="0" parent="rMVDz-vUEz1KjyfKddpo-150">
          <mxGeometry x="-0.3781" relative="1" as="geometry">
            <mxPoint x="241" as="offset" />
          </mxGeometry>
        </mxCell>
        <mxCell id="rMVDz-vUEz1KjyfKddpo-153" style="edgeStyle=elbowEdgeStyle;rounded=0;orthogonalLoop=1;jettySize=auto;html=1;entryX=0.005;entryY=0.63;entryDx=0;entryDy=0;entryPerimeter=0;strokeWidth=3;" edge="1" parent="1" target="rMVDz-vUEz1KjyfKddpo-98">
          <mxGeometry relative="1" as="geometry">
            <mxPoint x="10" y="727.9999999999995" as="sourcePoint" />
            <mxPoint x="382.46875" y="357.1999999999998" as="targetPoint" />
          </mxGeometry>
        </mxCell>
        <mxCell id="rMVDz-vUEz1KjyfKddpo-156" value="" style="shape=image;verticalLabelPosition=bottom;labelBackgroundColor=default;verticalAlign=top;aspect=fixed;imageAspect=0;image=data:image/jpeg,/9j/4AAQSkZJRgABAQAASABIAAD/4QCMRXhpZgAATU0AKgAAAAgAAYdpAAQAAAABAAAAGgAAAAAABJKGAAcAAAAzAAAAUKABAAMAAAABAAEAAKACAAQAAAABAAACAKADAAQAAAABAAACAAAAAABBU0NJSQAAADEuNzIuNi0yM0wtUlFNVFZISzY3NVgzUEc3TVNVQVZWRlJQWjQuMC4yLTYA/+0AOFBob3Rvc2hvcCAzLjAAOEJJTQQEAAAAAAAAOEJJTQQlAAAAAAAQ1B2M2Y8AsgTpgAmY7PhCfv/AABEIAgACAAMBIgACEQEDEQH/xAAfAAABBQEBAQEBAQAAAAAAAAAAAQIDBAUGBwgJCgv/xAC1EAACAQMDAgQDBQUEBAAAAX0BAgMABBEFEiExQQYTUWEHInEUMoGRoQgjQrHBFVLR8CQzYnKCCQoWFxgZGiUmJygpKjQ1Njc4OTpDREVGR0hJSlNUVVZXWFlaY2RlZmdoaWpzdHV2d3h5eoOEhYaHiImKkpOUlZaXmJmaoqOkpaanqKmqsrO0tba3uLm6wsPExcbHyMnK0tPU1dbX2Nna4eLj5OXm5+jp6vHy8/T19vf4+fr/xAAfAQADAQEBAQEBAQEBAAAAAAAAAQIDBAUGBwgJCgv/xAC1EQACAQIEBAMEBwUEBAABAncAAQIDEQQFITEGEkFRB2FxEyIygQgUQpGhscEJIzNS8BVictEKFiQ04SXxFxgZGiYnKCkqNTY3ODk6Q0RFRkdISUpTVFVWV1hZWmNkZWZnaGlqc3R1dnd4eXqCg4SFhoeIiYqSk5SVlpeYmZqio6Slpqeoqaqys7S1tre4ubrCw8TFxsfIycrS09TV1tfY2dri4+Tl5ufo6ery8/T19vf4+fr/2wBDAAICAgICAgMCAgMEAwMDBAUEBAQEBQcFBQUFBQcIBwcHBwcHCAgICAgICAgKCgoKCgoLCwsLCw0NDQ0NDQ0NDQ3/2wBDAQICAgMDAwYDAwYNCQcJDQ0NDQ0NDQ0NDQ0NDQ0NDQ0NDQ0NDQ0NDQ0NDQ0NDQ0NDQ0NDQ0NDQ0NDQ0NDQ0NDQ3/3QAEACD/2gAMAwEAAhEDEQA/APdZp5VkYFyeetR/aJf75qOc/vmHvUVf0vFaH4Q27ln7RKP4jR9ol/vmq1FVYLssfaZc/eNL9ol/vGq1FKwczLP2iX++aT7RL/fNVsjpRkUWQXZa+0S/3jR9ol/vGq1GfSiyC77ln7RL/fNJ9pl/vGq2RS0WFdln7RL/AHzR9ol/vmq3SkyKLD5mWftMv940faZf7xqtkUZFFg5mWvtEv940n2mX+8ar0ZxRYOZln7RL/fNJ9ol/vGq+aKLBdlj7TL/eNL9ol/vmq2e9HWiwczLP2iX++aT7TL/eNV+lJkUWDmZZ+0y/3jS/aZf75qrkUZAosF2WftMv980v2iX++aq5oyKLIOZlr7RL13Gj7RL/AHzVXIoyKLBdlr7RL/fNH2mX++arZoosF2WfPm/vGj7RL/fNV/xoxRZBdlg3Eo/iNH2iX++ar4NJRYOZln7RL/fNH2iX++arUUWEpPuWftEv980faJf75qtmjNFh8zLJuJf75o+0S/3zVbNGaLBdlgXEv940v2iX++arUdKLBzMsi4lP8Ro+0S9NxqtkUmRRZBdln7RL/eNL9ol/vmq2aKLBd9yz9ol/vmj7RKf4jVXIpc4osF33LP2iX++aPtEv981WzRRYLvuWftEv940faJf75qtRRYLssfaZf75o+0S/3zVfOKKLBzMs/aJf75pPtEv941XozRYOZln7RL/fNJ9pl/vGq+aM5osF2WftEv8AfNH2iX++arUmRRYOZlr7RL/fNPiuJjIoDkc9ap1LAf3q/Wk1oCbuf//Q9pmOZn+tRUs5zM31qKv6YjsfhD3H5HSlLetR0ZFMRIT60ZzUeaTIoAloyKiyKXPahAPyKM96ZntRmiwD8ijIqPINLQIkpMimZxR0oaAkpMimZ7UmRQMlz3oqLNKT60WESUmRTM4OKCwosMkoqPIo3e9AEmRRUfSkyKLAS0VFkUZFFgJc9qKjzRmhIB+RS1FkUZxQBLVnTrNtW1mz0NJPKN7KsQkP8JY4zVHIrX8MnPjPRfe8h/8AQhUVG1CTW6T/ACHBXnFPuj6Zb9j/AFYYMPiVCCMnfE3B9ODVWX9kXxOgzB4ht2PvGwr71Axgegp1fi/+u+breov/AAFf5H6m+E8tf2H97/zPzru/2WPiTbZNrfWd0B0G4qf1rlb74BfF2x+7pX2rH/PKRT/Wv09wfWjn1rqp8f5lH41F/K35HPU4NwL+FyXz/wA0fkbqPgb4i6KM6n4av0UdWERZfzGa5KW7e2cx3sElsw7SKVP61+z5AIwRkGsTUfDXh3VozFqemWtyp6iWFG/pmvVw/iI/+X9Bf9uu353PPrcEr/lzW+9f5H4+pdWsg+WTJqccjIOa/R/X/wBnL4X67uaKxfTpG/is32f+OnIrxXxB+yDJGGm8J6+5YcrFfLx9Nyf4V9BheNcqraTk4PzX6q54uI4VzClrGKkvJ/52PkmivQPEvwc+KnhENJqGkPd26/8ALWy/fjA9lyR+IrzE3iRyGG6je3kU4KyqUIP0OK+nw9elXjz0JqS8nc8GtRqUZctaLi/NWL1GaiVlcZRgw9qXnpWpmSUZFR0UWAkJxRUeaM54osBJSZFMpMiiwEuaMio6PaiwEmc0dKjzRTAkzmio6TdRYCXNFRZFKTikBJRUeRSZ7UAS5oqOgn1p2AkqWA/vV+tVs1LAcSr9aT2Gtz//0fYZ2/et9aizROf3rfWot1f0ytj8Ie5Jupai3CjcKdhEuaTcKjyKMiiwEm4UbhUeRRkUrASZFG6o8ijcKAJNwpc45qHd6Uu4UASZ70ZFR5oyKLASbhS5qLcKNwpgSEijIqPIo3CgCTOKMio9woyKBEm4UbhUeRRkUDJMijIqPIoyKLASbhRuFR5FGRRYCTIoyKjyKMiiwEm4UuaiyKMiiwEmRWx4Yb/is9D/AOvyH/0IVh7hWv4Yb/itNEH/AE+Q/wDoQrOt/Dn6P8iqX8SPqvzP2MH9KdTARx7in5FfzWz92CijIoqQCiiigAooooAK4jxP8OfA/jFGTxFo9rdsRjzCgWQfR1w36129Fa0a9SjLnpScX3TsZ1aMKkeSpFNeep8T+L/2RLcmW78A6u9o3VbO7HmRn2Eg5H4g18s+KfBPjnwJMYfFWlTQRA4Fyo3wv7hxkV+vuPSq91aWt/A9pewx3EMgw8cqh0Ye4PFfZ5bx3jqFo4q1SPnpL7/87ny+P4RwlW8sP7kvLVfd/lY/GKG4gnGYmz9amzX6AePv2XPBniYyah4ZdtCvzkgR/NbM3un8P/Afyr4x8b/C74hfDaTPiKw+02BOFvbTMkP/AAI9VP1FfouVcR4DMLRoztP+WWj+XR/I+IzDJMZgrurG8e61Xz6o43IpM5qtFcRTjdGwPsKlzjrXu2PJTvsSbqAc1HuFGRSGSZFGRUe4UbhTESbhRkVHkUZFICUH0pNwqPIoyKYEm4UbqjyKMiiwyTIpc1FuFGRRYCQtRuFR5FJupCJc8ZqWBh5q/Wq2RUsB/er9aGtCluf/0vV7g/vn+tRbqJz++f61FuNf01HY/B+pLuo3VFuNG40xEu6jdUWTRuNAyXdS7hUO40ZNAEu6gN61FuNG40WAl3Ubqi3GjJoAl3UbqiyaNxoAl3UbqizRk0AS7uKN3FRZNGTQBLuoDetRbjRk0CJd1G6o9xpNxoGS7qN1RZIo3GiwEu6jdUWTRk0CJd1G6otxpd1AyTdRuqLJo3GiwEu6ruj6gmkeIbDXZV8xLKZJSnrtOazSSaM8YNKUVJOL2asNNpqS6H3VH+2P4L+UTaddKQBuxzz3xx0rWtv2wPhjKQJ1u4frET/IV+fvyD+BfypcJ3Rc/SvlJcEZQ9oSX/b3/APoI8V5mvtJ/wDbv/BP0rsv2ofg9eYD6s8BP/PSCT+i12WnfGv4WaqQtn4itCT0Dlo//QlFflAUjP8AAPyqEwQn/Z+lcVXw/wAufwTmvmn+h10+MsavjjF/ev1Z+0lhrWj6ogk02+t7pT3ilV/5GtTmvxNt3vrNxJYXs8DjoY3ZD+hr0TQvjH8W/DTL9g12WaNf+WdyRMuPTDZrx8T4dVFrh6yfqrflc9OhxtDavSa9Hf8AyP1uor8+fD37X3iexZY/FejQXsfRpLZjC/1wcrX0J4R/aW+F3ilkt5746RdNx5V8PLXPoJPun9K+Yx3CeaYVOU6V13jr+Wv4HvYTiLL8RpGpZ9np+eh9BUVTstQsNShFzp9zFdRN0eF1dfzUkVb+tfOuLTsz2k01dC0UUUhhUU8ENzC9vcRrLFICro4DKwPUEHgipaKadtUB8mfEv9ljw/4g83VfAkq6HqJyxt8E2krdenVCfbj2r4d8T+G/FHgPUjo/jLT5LGTOI5T80Mo9UkHykfjmv2VrB8R+GNA8XaXLo3iOyivrOYYaOVQcH1U9VI7EYNfb5LxvisLali/3kP8AyZej6+j+9Hyea8KYfEXqYb3J/g/VdPkfjmGDDIOQfSgt6V9DfFX9mfX/AAP5+v8AgIzatoy5eSyPz3VuO+3/AJ6IPbkelfNtvdx3IO3KupwyNwwI6gjsa/V8BmGHxtH2+FlzR/Feq6H55jMHXwtT2WIjZ/g/R9S4W44o3VFk0ZNdhyku6jdUW40ZNAEu6jdUWTRuNAyXdxRuqLJoyaBEu6l3VDk0bjQMl3UbqiyaMmgRLuqaBv3q/Wqm41NAf3y/Wk9hrc//0/TZ2HnN9ahyKJ2/fP8AWocmv6bWx+Dsm3Ubqh3GgtTETZFG6od1G40ATbqNwqHcaNxoAm3UbhUW6kyaAJs0bhUO40u40AS7qXd71DupNxpWGTbhRuqHcaXdTESkik3etRbjRuoAm3CjIqHcaXdQBMWpN1RbjSbvWgZMWo3Cod1LuoES5FG4VDuNLuoAl3CjdUW71o3elAE273pM1Hkn0ozjrikMkyKNwqLenqKTzE/vCgRNkUZFQ+YnqKUHPTFAEuRRuFRnI9KQN607gS5BpN3pUe40bjQBIWJ4NQS21rOP3kYJ9TTtxoyaFo7oLdGbOgeJfFnhGcXHhbV7mwZT92JzsP1U/Kfyr6Y8F/teeIdLMdn4+0sX0AwDeWuEmA9Wj+634Yr5OzzkUhOeGGfrXm5hlGCxqtiqab77P71qduDzLFYR/wCzzaXbdfcz9evBHxS8DfEO3E3hfVIriQDL27Hy50/3o2wfyyK9B5r8PEhaC5S+0+aW1uozlJYXMbKfYgivpX4fftU+N/CJi03xvCfEGmr8v2iPC3ka+pP3Xx74PvX57mvh/Uhepl8uZfyvR/J7P8D7TLuMoStDGx5X3Wq+a3X4n6X0V5/4D+J/gr4kWAvfC2oxzuADLbMdlxEfR4zyPqMj3rv6/Pa+Hq0ZulWi4yXR6M+0o1qdWCqU2mn1QtFFFYmgV8t/GL9mvQ/HRl8Q+EjHo+v4LNtG23um9JFH3WP94fj619SUV3ZfmWJwNZV8NKz/AAfk11RyY3A0MXTdKvG6/L07H4pavput+FtZl8MeLLN9O1OA/wCrcfLIvZ426Mp9RUBPPNfrJ8UfhP4X+KuinTNci8q7hBazvogBPbyHup7qe6ng1+XHjjwP4q+F2ut4e8XRZRyTZ3yA+Rcx9ip7N6r1Br9p4e4loZpDk+Gqt49/OPl5bo/Lc5yKtl8ub4qb2fbyf+ezMHIo3Cotw7Um419IkeHYmyKMiotxo3UAS5FLuqDdS7qYE26jIqDdRuNAEwbmgtzUO40u6gCUtU1uw85PrVTdUsDHzk+tJ7DW5//U9AnY+e/1qLdSXDYmb61Fur+m1sfg/Um3Ubqg3c0u6mIm3UBqh3Gk3e9AE+6jdUW40m6gZNu+tG6od1G6gCbdRuqHdRuNAE26jcKhLUbqAJt1G4VDuo3UCJt1JuqLdSbqAZPuPejdUO6k3e9AE+6jdUO73pd1AEu4UoPpVKe7gthmZgK6Lwv4O8eePJvJ8I6Hc3kfQ3G3ZCv1dsD9ampONOHtKjSj3bshwi5yUIK77JXZlFgPvHb9arSX1vFncwYjsDX154S/Y113UAlz461pLWM4LWtmN7/QucKPwzX0v4Y/Zu+EfhcI8GireTp1mu3aYk+u0nb+lfK47jXK8O+WEnN/3Vp97t+B9DhOFswr6yioLzev3I/LnTLPxBr0gi0DR729YnGYoWYfmBivVdH/AGfvjZryh4tHis42/iu5VjP5ZJr9WrLT7DToRb6fbRW0SjASJAigfQAVdr5bE+Itd/7tRivVt/5H0FDgmiv49Vv0sv8AM/NzTf2PviHc4OratY2ueoiLSf4V2tn+xbGQDqXiaQk9RFFj9Sa+7qMV41XjjN57VEvRL/gnp0+E8tjvBv1bPjCL9izwYB++1zUXPfG0VL/wxb4F/wCgxqX5rX2TgUYFcr4uzf8A5/v8Dp/1byz/AJ8r8f8AM+M3/Yt8FEfu9b1JfxU1hXv7FdngnTPEs6+gmjz+oNfdOBS4q4cY5xF/x2/VL/IiXDOWP/l0vvf+Z+cWp/seePLcE6TrFlckdBLvjz+hrzvV/wBnj41aErO2kxXsa87rSUSE/hwa/WGivQocf5nD+Ioy9V/lY4qvB2Al8HNH0f8AmfiPqmmeJdAkMfiDR72zI4JkgZV/MjFZ0d/by9G2/Wv2/urO0vojBewRzxsMFJFDqQfY5rxvxP8As7/CXxUHe70OO2mfP720ZoWB9cKdv6V9DhPEPDy0xVFx84u/4Ox42J4KrLXD1E/XT8Vc/K0MD907vpSbsGvr3xb+xlqdoJLnwHrvmAZK2t8uD9A68fmK+XvFfgf4geAJjD4u0Se1i6C5UeZA3uHXIr7DL86wON0w1VN9no/uf6HzOMyvGYXWvTaXfdfejD3UbhVOC7guBmJs/Wp91eo1bc4E77Em6l39j0qHd70bvegCSzkvdKv49X0K8m06+gO6Oa3co4P1Havsj4W/tbT2jw6F8VY8qcImrQrz6Dzox+rL+VfGWcc0x9kilJBkH15rzszynCZhT9nio37PqvR/psdmAzHEYKfPQlbuuj9Uft7pupafq9lFqWlXEd3azqHjlhYOjA9wRV6vx1+HHxZ8afCO+E2gTm80h33XOlzEmNx3KH/lm3uPxzX6c/DH4u+Dvirpf23w7cbLqNQbmxm+W4gY9mXuP9ocV+PZ/wAK4nLn7WPv0v5l0/xLp+TP0zJuIqGO/dv3anbv6d/zPUaKBRXyp9CFcf448C+G/iHoE/h3xNarcW8oJR+kkMnZ426qw/8A112FFaUa06U1Upu0ls10IqU4VIuE1dPofjv8TPhn4i+D+vf2VrW660q4Y/YNRAwkqf3X/uyAdR+I4rhtwIyDwe9fsz4x8HaB470C58N+JLZbmzuVwc8Mjj7roeqsp5Br8mvif8NNf+EHiQ6LqwNxpV0WbTr8D5JUH8Lf3ZF7j8RxX7VwvxPDMoewr6Vl/wCTLuvPuvmvL8sz/IJYGXtaWtJ/+S+T8uz+/wA+L3Ubu1RbhjPY9KTdX1x84TbqN1Q7vejdQBNuFG41Du96N1AE26jcKh3UbjQBNu+tTQN++T61T3VLA375PrSew0f/1ezuGPnN9ah3Ulw375vrUO6v6bWx+DS3LG70o3VBupN1MLlgt6Um6od1G6gCfcaN1QbhRuoGT7vWk3VDuo3CgRPu9aN3pUG6jdQBPu9KN1QZFG4UDJ93rRuqDdRuFAE26l3VBkUbqBE+6jOeBUBYKMk4HfNafhbw74p+IOrjw/4G0+TULjOJJQMQQj+9JIflUfrSnKMIuc3ZLdvRIcVKUlCKu3sluZ091BbLulYA+nc16F4D+EnxJ+KEit4d05rTTiQHvrwGOED1Unlz7KDX2j8Kv2SfC/hUwa348lXxDq6gMInGLOFuuAh++R6tx7V9dwwxW8SQW6LFEgCqiAKqgdgBwBX59nHHtGk3Sy6PM/5nt8l1+dj7LLeD6lS1TGvlX8q3+b6fI+WPh7+yX4A8KeXf+JWk8Q6gMMftBxaq3+zF3/4ET9K+o7SztLCBLWxgjt4UACxxKERQOwAwKs0V+aY/NMXjZ8+KqOT/AA+S2R91g8vw+FjyYeCX9dWJj3paKK4DsCiiigAooooAKKOleb/EP4r+C/hdb21z4wvDapdEiLClixHWtsPh6teoqVGLlJ7JbmVatTpQdSq7JdWekZFFfP8AbftPfBa5Cn+3Vj3DI3xsP5A11un/ABs+FOqYFp4msST2aTYf/HgK7KuT46nrOjJf9uv/ACOaGZ4Sfw1Yv5o9TorF07xFoGrANpmoW1yD08uVW/rWzz2rz5wlF2krHZGSkrxYtFJRmpKDHpVe7tLS+ge1voY7iGQYeOVQ6MPcHINWaKabTuhNJ6M+WfH/AOyf8PvFplvtAaXw/fMCV+ynNsX9WiPT8CPpXw349+DnxJ+F7s+t2DX+mhiEvrJTJFtHd8cp+NfsVUcsUc0bRTIsiOCGVhlSD2IPBr6/KeNcfg7Qqv2kOz3+T3/M+bzHhbB4m86a5Jd1t80fhdBd29yu6JgT6Z5FTk/nX6L/ABV/ZP8ACni7zdY8Esnh7WGy5VF/0SZvRkH3CfVfyr8+vF3hfxZ8OdWOieONPksZCcQz43QTj1jkHyt/MV+p5Pn+DzKP+zytPrF7/Lv8j8+zLJ8VgX++Xu/zLb/gfMzd1JuqLeCNynIPpSbq9k8y5OHx0qbS9S1fw7qsPiDwxeSafqNuQySxMVJ9mHQg9weKpE0m70pNJpxaumF2ndaNH6a/Av8AaN0n4jpF4Z8TGPTvE8a48v7sN3t6tET0buU/KvqGvwkkVzLFd2sj291AwkhmjO10dTkEEdDmv0O/Z5/aSTxWYPAvxBlS319RstLxiFS+A7Hssv8A6F25r8q4p4O9injMAvc+1Ht5ry8unpt+hcP8Te1awuMfvdJd/J+f5+u/2bRRRX5yfbhXGePfAnh/4jeG7nwz4jh8yCcZjkGPMgkH3ZIz2ZT+fQ12dFaUa06U1Upu0lqmRVpQqQdOaunufit478D+IPhZ4qm8IeI1LJy9jeAfu7qDPDKfUdGHY1ze6v13+L/wo0P4t+FJdC1LEF7DmWwvVH7y2nA4IPdT0Ze498V+RGpaXrXhfXL3wj4ohNtqunSGOVT911H3ZEPdWHINfuvDXEEM0w/vaVY/Eu/95eXfs/kfkme5NLL63u605bPt5P8ATuhN1G71qDPrRur6M8Qn3Um6od1G71oC5Puo3VBuFG4UAT7vSprdv3y/WqW4VLA375frSew1uf/W6W4b9831qHdRcNiZ/rUO7Nf02tj8Ge5Pu7Zo31XyaN1MRPupd9V8+9LuoGT7vejdz1qvu5o3e9Arljd70bqr7uetLuNAE+6jfVfdRu96B3LG6k3VBu96A1AifdS7veq+73pdxoAsbqguLqG1jMs7hQPU1WuLsQFI0UyTysEjiUZZmPQAdzX3N8Af2WWme28d/Fe33vkS2OjycqndZJx3PcJ+fpXn5pmuGy+h7fEv0XVvsv8APod2AwFfG1fY0F6vovU8g+Dn7OHiv4sNDrvibzdD8Lk7lyNt1eKP+eYP3UP94/hmv078I+C/DPgXR4tC8K2EVhaRADbGPmcj+J26sx9STXToixqI41CooACgYAA6ACnV+KZ7xJiszn+8fLBbRW3z7vzP1PKcjw+Aj7ms3vJ7/wDAXkFFFFfPHshRRRQAUUUUAFFFFABRRRQAV8Eftx28Fxpfh5Jo1f8AeTEZ9ttfe9fBf7bxxYeHP9+f/wBlr6jgx2zij8/yZ4HFCvllX5fmj4MWzsxHHiMD5RTH0+zf7wI+hqcN8qfSk3e9fu3PJdT8j5I9hLeGW0YPY3lxAw6GORl/ka73Qvil8UfDDq+j+Ir0KvRJZDKn/fL5FcGWo3e9ZVqVOquWtFSXmkzSlUnTd6cmvR2Pq7w1+2X4+0d1j8WaZb6vAOGeEeTNj22/Kfyr6d8HftX/AAo8VulveXM2iXD4G2/TYm49t6kj8Tivy1EjAcYxUEsNvP8A61ck183juDsqxOqhyPvHT8NvyPcwnE+YUNHPmX97/Pc/d6xv7HU7ZLzTriK6gkGVkhcOhB9CpIq5X4ceFfGfjnwDci68G63cWK5ybdW3Qv7MjZU/lX2b8Of207N3i0v4p2H2Fzhf7RtFLRMfV4uWX3K5HtXwmacB43Dpzwr9pHy0l93X5H12A4vwta0cQuR+e33/AOZ99UVi6B4i0LxTpsWseHb6DULOYZWWBw6/Q45B9jg1s5r4ecJQk4yVmj6uMlJc0XdC1zfirwj4d8baPPoPiexiv7OdSCki5Kk/xI3VWHYjmukop06kqclODs1s0E4RnFxmrpn5TfGT9mzxP8L2m8QeFPN1nwyuWkUDddWi/wC2B95B/eH4gV87QXUN0nmQMD6j0r94GVXUo6hlYYIPIIPY+1fCfx3/AGUo9Qa48a/CeNLTUhmW50kfLBdd2MXZHPp0J9K/VeHONo1WsNmTtLpPo/8AF29fv7n57nfCkqd6+BV11j/l/l9x8I7qN1UIbl5JJbW5ie1vLZzFcW8oKyRyLwVZTyDVjdX6K1bc+JT0J93vVe4hE+10Zop4mDxSIcOrLyCCOhBpd1N3UJ21QNJn6Lfs1/tEnxcsfw98dzhPEFsoWzupDgX8ajoT080Dr/e69a+z6/BWUSl4rq0la3u7Z1lgmQ7XjdDlWBHQg1+of7N3x8i+J2lf8Iz4ldYfFOmxgSj7ovIl485B/e/vgdDz06flHGPCyo3x+Dj7n2kvs+a8vy9Nv0PhniB1bYPFP3vsvv5Pz/P13+p6KKK/OT7cK+Sv2pPgofHmgjxp4ah/4qPRIy21B813bLy0Z9WXqv5V9a0V35ZmNbA4mOJoPVfiuqfkzkx+Cp4uhKhV2f4efyPwbtbtbuHzBw68Op6gjqD7irG73r6T/ap+EJ+H/iX/AIWF4eg26Drcx+3RoPltrx+c4HRZev8AvZr5l3AgMpyDzX9BYDH0sbh4Yqh8MvwfVP0PxnGYOrha8sPV3X4ro/mT7qC9V8+9G73rrOcsbqN3vUAajdQBPuqa3b98nPeqO6prZv36fWk9gT1P/9fYuW/fv9ag3CkuG/fv9ah3Gv6cWx+DNk+6jdUG70pNxoET7vel3VBuNG6nYCfdRuqvuNG40gLG6jdVfcaXcaLAT7qTdmoN1G40WE2WA1G41X3d6XdQNMsBvWq81xKJYrKzhe6vblhHb28Y3PI7cAAfWq11eC1jBUF5HO1EXksx6AD1Nfo7+y9+zqPCsEPxJ8dweZ4gu032dtIOLGJ+hwf+WpH5fWvMzjN6GW4Z4itq/sru/wDLuz0Msy2rjq6o0tO77L/Psi5+zp+zLB4MSHx18QY0u/EcyiSC2YborEHkcHgy+p7fWvtGlFFfg+aZpiMfXeIxLu39yXZeR+u4DL6ODoqjQVl+L82FFFFecdoUUUUAFFFFABRRRQAUUUUAFFFFABX5+/t231pY6V4ckuXKEyTYx3+7X6BVwPjr4ZeDPiPBBb+L7BL6O2JMYY42564r2uHsxpYHH08VWTcY3vbfY8vOcFUxeDnh6TSb7+p+I8Wo2EscZSU8qOtWFnhY/K+a/Vm7/ZO+C9193TJYcDA8uZhXGap+xN8Mb3JsL/VLFu2yVXA/ArX6lT48ymT97mXy/wAmfn9ThDMY7cr+f+Z+b+CRkdKbk19m67+w3rFuGfwt4nWcjlUvUK/mUz/KvBfFX7Pfxu8Fq017pCajaJ1n08+dgepX7w/KvZwnEGWYl2o11fs9H+J5mIybH0FepSdvLX8jyvdRurOlvjaTG11KCW1mBwVmQpz/AMCAqysiOMxsG+lew4tK55d02T7sdDSMUcFZFBB79aiLUm40gOk8IeMPGXw51Iav4F1SWyfOZYGO63lHo8R+U/zr9Evg9+1p4U8bvD4e8ahPD+vEBA0jYs7lvWNz9wn+634GvzJyRzUFxBb3a7ZkBI6H0PrXjZxw/g8yj/tEbT6SW/z7ryZ6mWZzisA/3LvH+V7f8D5H78KQwDKQVIyCO4p1fk78F/2oPE3wxmh8P+NzNrXhjhEnJ33Vkv8As55eMd1PI7elfqN4c8SaH4t0e21/w3exX9hdLuimhbcp9j6EdweRX41nnDuKyypaqrwe0ls/8n5H6hlOdYfHwvTdpLdPdf5rzNyiiivBPXPkf9or9m6z+JFvJ4y8GJHY+LrVM8fJFqCL/wAs5ccb/wC6/wCB46fmQJLmO5uNN1K3kstQspDDc20y7ZI5F4IINfvfXx9+0z+zsnxDs28c+CYkg8WWEeWQfKmowr/yzk/6aAfcb8DxX6Nwlxb7FxwOOl7m0ZP7Pk/7v5eh8TxJw57W+Lwi97qu/mvP8/U/NXdRuNULe6afzIZ4nt7q3cxTwSjbJFInDKynkEGrG41+sNW3Pzq9yfdU+n6vq/hrV7TxT4dna21LT5BLG68Z2nlT6gjgj0qhupQ+D61LSatJXTGpNO6dmfs38GvippPxc8F2viSwKx3aAQ39qDlre4X7ykdcHqp7ivV6/FD4P/FK++DHjqDxBEXfRL9lg1a2Xo8ZPEgH9+M8j2yO9ftDpupWOr6fbarpkyXFpdxJNDKhyro4BUg+4r8N4r4feW4nmpfwp6x8u8fl+KP1nh3OVjqFp/xI6Pz8/n+Zeooor5U+hOc8W+FtH8a+HL/wvr0AnstQhaKRWHTI4YejKeQfUV+J3ijwrqvw68Xap4E1zJm06XEMpHE0LcxuPquM+9fuma+Kv2xvhW3iHwxF8RtEhzqWgDF2EHzTWZPPTqY25+hNfdcD519VxX1Sq/cqfhLo/ns/l2Pk+LMq+sYf6zTXvw/Fdfu3+8/Ostjik31TguBcQJMvUjLe1Sbq/Y7PY/MLljdRuqDcaTdQPcsbqmt2/fp9ao5NT27fv0+tJrQaep//0LNw379/rUG6kuG/fv8AWoN1f06tj8Ee5Puo3VAWo3GgRY3etG70qDd60m6m0MsbqTdUG40m40egizuo3VX3elG71pWGWN3rSbqgLUbqBFjdUU1xHbQtcTEKiDJJpu7uenevYv2ffhBcfG3xtm/Rl8LaFIkmoSdriQcrbqf9rHzeg+orDFYqjhqMsRXdoRV3/kvN7I2w+HqV6saNJXlLb+uyPeP2TvgC2uzwfF3x1bf6Kp3aLYyjh8Hi5kU9v7g79fTP6TVDbW0FnbxWdpGsMECLHHGgwqoowAB2AFT1+A53nNbMsS8RV22S6Jdv8+5+yZVllLA0FRp79X3f9bBRRRXjnpBRRRQAUUUUAFFFFABRRRQAUUUUAFFFFABRRRQAUUUUAH40nNLRQBxXi34deB/HVsbTxXo1rqCkYDSRjzF91cYYH6Gvi74g/sQW7CXUPhbrD2UnLCwvyZImP91ZRyvtkH61+g1JjHSvZyzP8fgH/s9RpdnqvuZ5mOyfB4xfv4K/fZ/efg/4s8LeMvh3qB0nx3pU2mODhJnGYZfdJB8rD6GsVZUkQPGwZTX7v+IPDWgeK9Nk0fxJp9vqNnKCGiuIw689xnkH3GDX54fF79jPVNHM/iL4PStdQcvJo1w2ZFHUiBz972VufQmv03JeOMLi2qWMXs59/sv/AC+enmfBZpwniMOnUwz549vtL/P5a+R8YbvSk3etUxPNFcS2GoQSWV7bsY5redSkiOOCCp5FTZ9a+4aPk0yYlXG1xlTwRXonwn+L/ir4Ia7/AGjom6+0G5cHUdKZvldf+ekXZJFHQ9D0NeabhQHI69DWVfD0q9N0K0eaL3X9fma0a1SjUVWk7SWzP3N8AfEDwx8S/DVr4q8KXa3NncD5l6SQyD70ci9VdT1B/lXa1+Gfww+KXib4J+Jx4l8NlrrTLllGq6UWxHPGOrr/AHZVHIPfoa/ZrwF488N/EnwvZ+LvCt0LmxvEyOzxuPvRuvVXU8EGvxHifhmpllT2lPWlLZ9vJ+fbv95+q5Dn0MfDknpUW67+a8vyOyooor5Q+iPzv/a5+BLwyzfGLwZbnzVAGuW0Y4eNeBcBR3Xo/tz618Iw3CXMSzRkFWGeK/fmeCG5hktrhFlilUo6OMqysMEEHggjtX46ftG/B2T4M+NBqGkox8K667SWrdrWcnLQE+ndPbjtX65wTxF9YgsuxL9+K9190vs+q6eWnQ/OOK8l9jJ42gvdfxLs+/z6+Z4ruo3CoN4PPY80m6v0L0PiiWRVmjaJxkHtX3L+xp8YHtbh/g54imJA3z6NK57fekgyf++kH1FfCu401L/UdHv7LxFo0rQX+mTpcwOpwfMjOR+HrXm5tldPMMJPC1Ouz7Po/wDPyO7LcfPBYiOIh03XddV/XU/oEorzX4SfEXT/AIp+AdL8Y2BCvcxBbqIHmG5j4kQ/RuR7EV6VX884ihUo1ZUaqtKLs/VH7VRqwq01Upu6augqvdWsF7bTWd2iywTo0ciMMhkcYIPsRViisk2ndGjV9GfiF8Wvh/c/Cf4laj4TlB+wTk3dhIejW0hO0fVTlT9K4POOtfpj+2V8NT4q8BR+M9Mi3aj4cbzHKjLPaOfnH/ADhvzr8wbe5W5t0mU9eK/oDhzNf7QwEK8n760l6rr81qfjWd5d9SxkqS+F6r0fT5FzdRuqDdSbjXu2PILG6prZj56fWqO+p7Zv36fWkxrc/9GG5c+e/wBag3Uly379/rUG6v6eWx+CPcn3Uu70qvuo3U7CLG6gtVfdRvosBY3Ubqr7qN1FgLG6jear7qN1AFjcKA1V91NkmWGNpXPAosBctdN1bxJrFh4U8PxNPqOrTpaxIozgyHG4+y9Sewr9vfhL8NdI+E/gbT/B+kKGNuge6nxhri5fmSRvqenoMV8V/sQ/Cgym8+MOvQnzXMllpKuOBGOJZhn1+6D9a/R0etfkfHmd+2r/ANn0X7kN/OX/AANvW5+kcIZV7Kl9cqL3pbeUf+D+VhaKKK/PD7QKKKKACiiigAooooAKKKKACiiigAooooAKKKKACjntQfavjX9rr4w/EH4S6bol14DNuJLySQTeeu4YXGMfnXflmXVcdiY4Wi1zS77HHj8bTwlCWIq3sux9k80Zr8jLP9tT43wpE11baVNlQWBgIz+KsK9F0H9vLWLdlHinw1FNH/G1nIUYfQNkV9JW4DzaCvGKl6NfrY8Slxdl03Ztr1X/AA5+l+RRXyt4P/bE+DHip47e7vptFuHwNmoRFEBP/TQZX+VfSuk63o+vWq32iX1vf27DIktpVlXn3UmvmsZlmLwjtiabj6r9T3MLj8PiFehNS9GalFH1orhOsKTFLRQB83fHL9m/wp8X7VtUtgmk+JYkxBqMa8SY6JOo++vv94fpX5P+LfC/in4c+IZfCXjizayvoyfKk6w3Cdnifoyn8x3r98MV5b8WPhF4T+MHhqTQPEsGJVBa0vYxie1l7Mjemeo6Gvt+GuL6mBaw+K96l+MfTy8vuPlM94ap4tOvh9Kn4S9fPz+8/EktzQWrf8f+AvFPwi8VSeDfGUfXL2F8o/c3cPZlP97+8OoNczur9lpVIVIKpTd4vVNbNH5jUpyhJwmrNbrsTh8cHpXqHwT+Meq/AvxcL+MyXHhjU5FXVbFeQueBPGOzp14+8OK8n3U19siGNxlWGOajE4aliKUqFdXhLRr+uq6FUK9SjUjWpO0ls/6/E/oA0bWNN8QaXa63o1wl1Y3sSzQTRncro4yCD/OtOvys/Y/+N8ngzXk+Evim4/4kuqSk6RPIeLa5brCSeiSH7vo31r9UvavwHP8AJamWYt0J6x3i+6/z6PzP2LJ81p4/DqtHR7Ndn/WwtcB8Tvh5ovxQ8F6j4O1yMGO7jPky4+aCdeY5FPYqfzGRXf0V5NCvOjUjVpu0k7p+Z6NWlCpB05q6ejP5/tT0XV/COvah4M8RRmLUdKneGQH+IL91h7MMEVX3etfoJ+238I/tmm2vxf0CDF3pWIdWCDmW1OAkhA6mM8E/3T7V+eEVws8SzJyHGfzr+hclzWGZYOOKju9JLtJb/wCa8mfjGa5fLBYmWHlstU+66f5Mt7qAw6HoagLUm6vVsecfVv7G3xNbwX8Q7j4d6pNt0vxMfNtdx+WO+QcKPTzF4+oFfrH3xX88t3NeWrQappshivbKZLiGReCrxEMCD+Ffub8HviDafFD4c6N4ytiBJdwBblB/yzuI/lkU/wDAhn6GvynxBynkqwzGmtJaS9Vs/mvyP0PgzMeanLBTesdV6PdfJ/menUUUV+bH3JT1CxtdUsbjTb1BJb3UTwyoejJICrD8jX4U/EDwhP8ADf4ia34IuchLO4Y2rH+OCT5o2H1U/nX7wn1r85f27fApQ+H/AImWMODbs1hfOvdW5hLfQ7hmvu+Asy9hjnhZP3ait/28tV+q+Z8jxhgPa4RYiK1g/wAHv/mfCO4g4pNwqusokRZB/FzS76/ZLH5iT7qntm/fp9ao76nt2/fp9aTWg47n/9LJuG/fPz3qHd7024b9+/PeoN9f0/HY/BHuWC1LuqvvzRvpiLG6k3VBu4o3ZoAsbvejd71X3Uu6gCffRu96r76N1AFndmtXwl4T1D4j+ONF8BaXndqdwqTuP+WUQ5kc/RQa595hHG0h/gBNff37B/w5aVNV+LWpRf8AHwWsNNLD+FTmaQfjhfzry87zNZfgamK6pWX+J7f5/I9DKsA8Zi4Yfo9X6Lf/ACP0I8N+H9N8K6BYeG9IiEVnp1vHbwoOPlQYyfc9T7mtykHr60tfzrOcpScpO7Z+1xiopRjsgoooqRhRRRQAUUUUAFFFFABRRRQAUUUUAFFFFABRRRQAV+d/7fJ/4lnhlT3kn/8AZK/RCvzr/b6ONP8ADGem+f8A9lr6ngz/AJHFH5/kzwOKP+RZV+X5o/PoNhI/90Ubz0wPyqAN8if7tIGr93PyNhNbWtwMTR7q2/DXibxh4GvV1LwVrN1pUqEHbDIdj47Mh+Vh7EVibqUN3pTipxcJq67PVBFuL5ouz7rQ++Phh+3TPBJDpHxf0wRJwn9rWQyP96SDsPUqfwr9CfDfijw94v0qHXPDGoQalYzjKTW7h1+hxyD6g4Nfz+PslG2VQwPrXVeAPiN45+EWsDXvAl80akg3FjKS1rcqOqumcZ9GGCPWvhc64FwuJTqYH93Pt9l/5fl5H1uV8W4ig1DF+/Hv9pf5/mfvxRXz58Cv2iPB/wAb9MZLL/iW6/aIDfaVOw81PV4z/wAtIiehHI6H3+g6/JMZg62FrOhiI8sl0f8AX4n6PhsVSxFNVqMrxYUUUVym55H8ZvhD4d+Mvg+fw3rKiK6QGWwvVH7y1uAPlYHrtPRh3Ffifreha74K8Q33g3xXC1tqenSGNww4kX+F1PdWHINf0GV8jftW/ANPin4WbxP4ZhVPFmiRNJblQAbyFeWgf1PdD2PHevu+DOJfqdX6niX+6k9H/K+/o+v3nyPE+RfWaf1qgv3kf/Jl/mun3H5Qbj0NJuFZtneG5jO9Sk0RMcqMMMrrwQR2INXN3vX7K1bRn5imnqiK+ieeEPAzR3EJDwyKcMjqchgfUGv2M/Zd+NKfF3wBFHqjgeItDCWmpITzIVGEnA9JAOf9rNfjvvweK9C+DXxLuPg/8TtN8VqzjS7lhZ6lEp4kt5SAWI9UPzD6V89xPkqzLBOEV+8jrH16r5/nY9rIc0eBxSm/glpL9H8vyP3eoqva3Nve20V7aSCWC4RZY3U5VkcAqR7EGrFfgLVtGfsSZm6vpVhrulXei6pEs9pfQvBPGwyGjkBVh+Rr8HPHfgu++F/xA1rwFqAOLS4L2sjf8tLWT5omH1U8+9fvoa/PX9vH4cC60HS/ippcf+laVKllfFRy1pKcqx/3G4+jV9zwHmrw+N+qTfuVNPSS2+/b5nyXF+Xe2wv1mK96Gvy6/wCZ+eW6k3VWSZZkWVDwQKdu96/Zj8wJ8hlKH+IYr7V/YW+IJ0nxNrPwxv5cW1+v27T1Y8CeMfvVH+8vP/Aa+I92K1vCnim68CeOtA8Z2TFW0y7jlkx/FGSA4PsVzXm5xl6x2CqYV7taeq1X4ndlmMeFxVPELo9fR6M/oJHpS1Q0vULbV9OtNWsm3295BHPGw5ykihl/Q1fr+cpJp2e5+2ppq6CvMPjJ4JT4h/DPXvCpUGa6tXa3JH3Z4/nQj3yMfjXp9JWuHrzo1Y1obxaa+RnWpRq05U57NW+8/na095FiltrgFJbaRoWU9QyHBH5ir2+vSvj34TXwJ8a/EWjxLstbqf7dAMYG25G/j6EmvLS1f0rQxEa9KNeG0kmvmj8MrUZUakqM94tr7iwGqe3b9+n1qgHqe2b9+n1rR7ELc//T5m5b9+/Peod3vTblv37/AFqDdX9PrY/BHuWd1G73qvupN31piLO73pN1V91G6gCxupd3vVbdRuoAsbvel3e9V99APv70AMuIbvUrqy0XTlL3eoXEdtEg6lpWCiv32+GPgu1+HngHRPB1oAF021SNyP4pT80jfi5NfkT+yR4PXxv8erC7uo/MsdBtpL9+MqJk+WLP/Ajn8K/bLvX5X4jZhepSwMdkuZ+r2+5fmfoPBOCtTqYt7vRei3/H8haKKK/Mz7sKKKKACiiigAooooAKKKKACiiigAooooAKKKKACiiigAPFfnN/wUEh1qTRfDcmkabc34ikmMnkRl9gO3GcdOlfozUM0EE67Z40lX0dQw/WvVyXM/7PxsMXy83L026WPPzTA/XMLPDc3LzdT+cz+0ZYI4xfWc1uwQZEilcH8RViK/tp/uOB9TX9BGp+CvB2sRGLVNFsLlG6iS2Q5/HbmvBvGX7H3wN8XxSMujHSbpslbjT5GiKn12ElD9MV+l4bxEwU3avSlH0s/wDI+Er8FYqKvRqKXrp/mfj1uzyp3D1FJu96+p/iX+xX8SvAyS6p4Guf+Ep01Mt9nRfLvUX/AHM4f/gJz7V8kG4lgu5NN1KCSyvYGKy28ylJEYdQwPINfaYHMcNjYe0ws1JeW69Vuj5fF4KvhZ8mIg4v8H6PY0N3vSbyOlQbqN3vXYcxZsb3WNB1m08VeFL6TS9a09/Mt7mI4II6qw6MjdGU8EV+wH7NP7SWk/G3Rm0jVwmneMNLQf2hY5wsyjjz4M9Y27jqp4r8dd5BzUmn6trnhfXrDxn4SumsdZ0qQSwTIcbsdUcfxIw4ZTwRXh5/kFDNaHJPSovhl28n5P8ADdefrZPnFXL63PHWD+Jd/Nef57en9FtFeHfAL41aP8b/AAND4htNtvqlqRb6rZA829yo5x32P1Q+nHavca/A8XhauGrSoVlaUXZo/YMPiKdelGtSd4vVBSdKWiuc2PyD/bI+ER+HfjuP4j6DAI9C8SyEXiIMLDqB5Y4HAEo5HvmvlIPkBgeDzX7yfFb4faZ8UPAOr+C9TQML63YQOesVwozFID2Ktj8M1+B/2LUtB1C98La3G0Oo6RO9tcIwwQ8ZIJ+h6j2r9x4Lzp47Bexqv95TsvWPR/Lb7j8o4pyv6pivawXuT19H1X6lzdUF1GtxAyN2BIpN/egPggnpX1/mfMtXP1h/Yo+KH/CZfDY+DtUmL6t4XYQHccs9q5Jib/gPK/gK+0K/Dn9mPx43w7+OGjvNL5Vhr7HTrrJwoEv3Cfo+K/cX39a/D+NsrWEzFzgvdqe8vXqvv/M/WOFce8TgVGT96Huv9PwFrlfG/hex8aeENX8K6igkg1K0ltyD6svyn6hsGuqpO9fJU6kqc1ODs1qj6OcFOLhLZn86n9n3mgalqHhnUlKXWlXElvKp6hkYipN3vX0X+2N4Mbwb8bZdahj2WniiFbxSBgecvySD65GT9a+bC3J9K/pPAYyOLw1PFR+0k/n1/E/DcXhnhq88O/str5dPwJ93vVS+j8+zliHVhxT91KGznPoa607O5zNXVj9i/wBj7xz/AMJp8FdLgmk33ehltNmB6gRf6sn6pjH0r6lr8qP2BfFp07xl4g8CzPhNStxfRKT/AMtIDhsf8Bb9K/VYcV+B8W4BYXNasI7N8y9Hr+dz9h4cxf1jL6cnutH8tPyFpDS0V80e4fmP+394SNpfeGfH9smBO50y5Yeoy6E/hkV8HlwTkdK/X39snwz/AMJF8D9SuFTdJpE8N+uOoCHax/Jq/HCzl8y0R8896/c+CMX7fKYxe8G4/qvzPybivD+yzGUltJJ/o/yNLdU1s379PrVDfU9s379PrX1j2PnVuf/U4m5b/SH+tQbqbdN/pD/Wq+41/T62PwR7lrdRuqtvFG6mIsbjS7j3qtu/KjdQIs7jSbjVfdRuoGWd1MkmEMTSnoAahDVnavKV06aNfvOpx+VVFXaQm7K5+o//AAT58IfY/BWu+OLlMTavffZ4WI58i3649ix/Sv0LHFeIfs4+GI/CfwS8J6Wq7Xk06G5l95LhRIf517gK/njiPG/WsyrVunM0vRaL8j9pyTC/V8DSpeS+96sKKKK8Q9QKKKKACiiigAooooAKKKKACiiigAooooAKKKKACiiigAoopCcUALRRRQAlfP8A8af2cfh98aLCR9Uthp2uKh+zataqEuEYdBJj/WJ6hucdCK+gaK6cJjK+Fqqth5OMl1RhicNSxFN0q0bxfRn8+XxG+HfjL4OeKD4S8cW5UOSbK/jB+zXcY6MjHv6qeQa5MtX73fFb4V+FfjB4RuvCPiqAPHKC1vcKP31rOB8ssbdiD1HQjg1+FfjrwL4k+E3jO9+H/i8f6TbMXtbnGEurYn5JUJ6gjr6HIr9v4Z4lhmlNwqaVY7ro13X6roflOfZFPL6nPDWm9n28n+jMXdSb8HNV92OKTdX1B4B6h8Ffite/BD4kWXimBnOj3zraavbqflkt3P38dN0Z+YH8K/eiwvrTU7KDUrCVZ7a6iSaGRDlXRwCrA+hBr+cG4jS5t3icZyOK/VH9hD4qz+JfBd58NdXlMl/4X2m3Zjlms5idq88ny24+hFfnvH+TKrQWY0170dJea6P5PT0fkfZ8HZm6dZ4Kb92Wq9eq+e//AA598UUgpa/IT9JCvyD/AG5fh6vhP4oab8QNPTbaeJoil5gYAurcBcn/AHkIP1r9fOtfL/7XvgL/AITr4K6s1tF5l9ou3UrbAy37n/WKPqhP5V9NwjmX1PM6cm/dl7r9H/k7M8LiTA/WcBOKWsfeXy/4F0fjMX3fMOh5FJuNZenXIurJJR2+X8R1q5ur97as7H4+tdSvqbzRRR6hbMVntXWSJh1VlIII/Kv38+DnjaH4h/DLw/4sjYGS7s4/PAOds8Y2SA/8CBP41+BDASxtEe4r9Pv+CfPiw6j4D17wjcPmXSNSMsSntDOo/Tcpr4fj7BKtlyrrem/wlo/xsfV8HYr2eOdF7TX4rX8rn6D0h6UClr8WP1I+DP2/PB51T4YWPjO3TM/h68UuwHPk3BCH8N2K/LeOXfFG3qozX7t/Hzw0PF/we8VaFt3NLYSSIP8AahxIP/Qa/A/TpS1sVbrGdv5V+1cAYt1ctlRb1hJ/c9fzuflvGOG9njlVX2l+K0/KxrbjS7ulVtwo3V9sfKnrv7Pnic+EPj54Y1MtsiuZ/sMnYbbkbP61+8nev5t/tsmmanperwkrJaXkEykdQUcGv6MPD+qRa1oWnaxC25Ly2hmBH/TRQa/LPEfC2qUMQuqcfud1+Z+g8EV706tDs0/v/wCGNmiiivzI+7OQ8f6NF4i8D69oco3LeafcxY9zGcfrX889gslubiwl4e0kaNgfVTiv6RGRXVkbkMCCPY1/Pf8AE3Sh4c+LvjPQ1G1INUn2D/ZZtw/nX6l4b4j+Ph/SX6M+A44ofwa3qv1OZ3VPbN+/T61nlu1T2rDz0+tfpr2Pg1uf/9Xze6f/AEh/rUG+m3T/AOkP9ag31/UCR+By3LO6jfiq2+jfTEWd9G6q2+jfQMs+YTRuqtuo3UCLO6nWto2reIdG0dBua+uooFUdy7AYqqG5HNelfAXTU179oDwVp0i70ivhMw/65gt/Ssq9X2VGdX+WLf3I0o0/aVYU+7S+9n75aFp66TomnaWgwtpawwAf9c0C/wBK16TnNLX8yyk5O7P3hJJWQUUUVIwooooAKKKKACiiigAooooAKKKKACiiigAooooAKKKKADpXzd+0J+0j4e/Z6tdLvfEOn3N9DqTuo+zfeXZjP86+kD0r80f+Ci5B0fwrGwBDSXHUZ6bK9/hjA0cZmVLD4hXg731t0fU8jPsVVw2BqV6LtJWt957b4K/bh+BXjCaG2uL+40SSbG06jF5cWT2MgJA/HAr62sNQsNVtItQ0y4iu7WdQ0c0LiSN1PcMpINfzWSWlnPDGskf8AHAr1X4T/HL4j/AfUo77w1eSahoW8Nd6LM5aCVP4tmc+W+OhXHPXNfeZr4eUZQcsum1L+WWqfo+nz/A+Qy/jSrGSjjYprut18v8AI/oKorzP4T/Fbwn8ZPBtp408IXHmW842TwOcTWs4+/FKvZl/IjkV6ZX5TXoVKNSVKqrSWjT6H6FSqwqwVSm7p7MDXyf+1x8D4fi78O5tS0mIDxL4dR7zTpFA3yog3SW5PUhwMgf3gPWvrCkIHQ8g1vl+Oq4PEQxNF2lF3/4Ho+pljMJTxNGVCqtGj+aqxvDeW+9wVlX5ZEPVSOCCPXNWy/Fe1ftR/DwfC745atb2UQh0vxEf7TtFUYRfN/1iL/uuDXhxbBIr+jsLiYYmjDEUvhkk18+ny2PxHEUJ0KsqE94uxOHwc16z+zt4+Pwy+Ovh/WJZDHp+rSHT77nC7J/lVj/utg147urM1d5FtDdwHbLBhkYdQynINXXw8MRSnh6m0k195NGvKjUjWhvFp/cf0yhg2GU5DDIIp1eZ/BzxVH40+F3hnxIrbnu9NgMh/wCmqIFfP/Aga9Mr+Z69GVKpKlLdNr7j91o1FUhGpHZq4VUvrODULK40+5UPFcRPE6nkFXBBH5GrdJ3zWabTujRq+jP5wdZ0aXwr4q1vwvMCrWV/cRgHjADnH6VT3mvfP2u9BHhr9ofWSi7ItUiivUA4BMqjcf8AvoGvnstjiv6WwOJ+sYWniP5op/ej8KxdD2FepR/lbX4llXwfrX1n+wn4kbRPjde+HnfbDrenSAL2MkOHX8cZr5D3jIr0v4Fa6fDfx28J6qjbS98lufdZvkI/WufOMP8AWMvr0e8X961Rtllf2OMpVe0l+OjP6B+9LSfxfhS1/OB+3la7tkvLWezlGUnjeNh6hwQa/nN8Q6a3h/xp4h8PuNpstRuIwPZXOP0r+jrvX4H/ALSeljQv2ifFlkF2pLItyvp+9UNX6V4b17YivQ7xT+5/8E+H43pXo0qvZtfev+AeS7qN9Vg1G+v1Y/Orkeo/PbKP7pz+VfvJ+zTq/wDbvwL8IagW3k2IjJPPMTsn9K/Bqf57eT2Umv2f/Ye1EX/7O+gR5ybaS6iPt+9Y/wBa+G8QqfNlsJ9pr8Uz67gupbHSj3j+TR9dUUg6UtfjB+niZ5Ar8LP2rdO/sr9ojxG2Nq3rRXA99yDNfumeor8Zf27LBbH44W14BgXmmwOfqpK/0r73w8q8uZSh3i/zTPkeM6fNgVLtJfqj5QL8kVNauPPQ+9UGf5ifeprVv36fWv2Nn5lHc//W8mum/wBIf61AG5pLpv8ASZPrVfdX9QrZH4G3qWd+aN9Vt/8AnNG6mIsb6XfVXcKXdQFyxupd9Vt1JuoAtq/zD619D/sc2S3/AO0jpchGfslvNKPb5SK+b1b5h9a+q/2FoxL+0TcMf+WelykfnXl57LlyzESX8jPQymPNjqK/vI/bnvRR3or+cT9tCiiigAooooAKKKKACiiigAooooAKKKKACiiigAooooAKKKKAA1+Zn/BRdsaZ4UH/AE0uP/ZK/TPpX5e/8FKNQtNP0TwpLdNtzLcAf+OV9VwUm85opef5M+f4pdssqv0/NH5yhvkTn+GgOFPPKnqKw49c0x4otso5QGpf7X07H+tH51+9ckr7H5CpLufSH7K3xauvg78X7G0mm2eHvFEq2WoRE/u43biKYDoGVjg+xNfvErBgGU5B5BHpX8tviDxDptraxXqTESRTIVI7FTnNf0hfBjxSvjP4V+GPEYfzHutOt/Mb1dUCt+or8s8R8sUZUselZy91+bWz+7T5H3/BGPclUwjd0tV89/x/M9RpDS0V+XH35+cP/BRXwoLjwX4f8dQJ++0i8NrIw6+VcYwD7Bh+tfmCJN0cbddyg1+0/wC29awXP7OHiWWfAFqbecH0KSj+hr8MtO8QaZPYwuJQflGa/cuA6s6uUKL+xJr5aP8AU/J+L6UaeYtr7UU/0/Q6fdVe6xLayRnvWd/bWm9PNH50yTWtMWOTdIOFJ4r7JQlfY+Yco23P2l/YM8Qf238A7S1dt0mmX11bEeg3bl/Q19ojpX5n/wDBNDX7bU/h34hsrZiwi1Ey/wDfWRX6YDpX8/cW0PY5xiIW+039+p+y8O1faZbRk+1vu0FpD2paQ9vrXzh7R+Q//BQ7TFtPiJ4W1sDBurNrcn18t8j+dfD7thjX37/wU0ubHTYPBGo3D7XFzKn/AAE4r86H1vTGfiUdBX9BcJc08moSt0a+5s/G+I0oZnWXo/vSNfdVrRb86b408N6gDgxaraHP/bVa57+2NP6+aPzrLn8QaYuu6DGJMs2o25H/AAFwa+jVKUk426P8jxPaJNO/U/qCicSxJKOjqrfnUtZWiTC40SwuB/y0toW/NRWrX8uTVm0fv0XdXDvX4g/ts262n7Rt9MOPtGnWjn67AP6V+31fir+3rD5Hx4tpennaXbke+MivuPD2Vs0a7xf6HyfGavl6faS/U+TS3OKN3vVdm5/Ck3V+0H5eWHf9zL/un+VfrP8A8E8r1rj4JyWrHP2W/mXHpuYmvyOd8Qyk/wB01+qH/BOKRv8AhWWsxuwAF/uVCfmAIPOPSvkuOYp5PN9pR/U+k4SlbM4+aZ+iw6UtMBGPvCl3e4r8LsfrI6vyK/4KG24h+Inhi8HWXTmU/wDAZDX64k46sK/Jv/go0uzxV4QnyCGtZVwOoxJ3r7HgR2zimu6l+R81xcv+Eyb81+Z8GF6mtW/0iP61nl+n0qe1b/SIx71+3vY/KE9T/9fxS7b/AEmT61BupLp/9Jk+tV99f1Gtj8De5Y3c0bqr7+aTd70WJLO6jdVbfRvoH5lndRuqtu560buetAi0rfMPrX1n+we3/GRN2Ceuky/zFfIit8w+tfUn7Dl2Lf8AaRiQnH2jT5ox9QM15Ofq+V4hf3Gelk+mPoP+8j90u9FHeiv5yP2wKKKKACiiigAooooAKKKKACiiigAooooAKKKKACiiigAooooAK8x+JHwd+Hnxat7a18faTHqcdoSYQ5I2Z64xXp1Fa0K9SjNVKUnGS6rRmdWlCpFwqK6fRnzCf2Of2dyAD4UhwBgfvH6D8ab/AMMb/s7Hk+FIf+/sn/xVfUFFeh/buY/8/wCf/gT/AMzj/snBf8+Y/cj5dm/Y0/Z1nh8iXwnAUJzjzH6/iTX0D4X8LaH4N0O28OeHbZbTT7RdsMKnIUV0NFc+JzLF4iKhXqSkvNtm1DBYei+ajBRfkkgoooriOo5vxd4R0Dxz4fu/C/ie1W8029XbPA3AcA5/nXgMf7Gn7OkUYhTwnAFHQeY/9DX1FRXbhsyxeHi4UKkorsm0ctfA4etLmrQUn5pM+YT+xz+zvjB8KQ/9/H/xoX9jn9ndQQPCkPIwf3j/APxVfT1FdH9u5j/z/n/4E/8AMx/snBf8+Y/cjzL4a/B/4e/COxn07wBpUelwXL75VQk7m+pr03pRRXn169StN1Ksm5Pq9WdlKlCnFQpqyXRBRRRWRoeXfEr4NfDn4uwWlt4/0iPVI7Jt8AckbCfTFeZt+x3+zwxy3hWDP/XR/wD4qvp2ivQoZtjaMFTpVZKK6JtI46uX4WrJzqU033aR8wH9jf8AZ2br4Uh/7+yf/FUD9jn9nhbi3ul8KQCS1kEsTb3OGXkHk19P0Vr/AG7mP/P+f/gT/wAzP+ycF/z5j9yILa2htLaK0t12xQoqIvoqjAFT0UV5bd9WegHevxd/4KBTo/xu0uJRzFpEQY+7Ox/lX7RV+Hn7eFz5v7Q72+c+Vpdrx6ZXNfceHsb5rftGX6HynGUrZfb+8j5VZvm/Cm7qrs/NJv5r9rPy25ZLcEHoetauleJ/GXh1Hh8K6zc6XDJ99LeQxhvrisHdzSFhUyjGStJXXnqCbTvF2Ox/4WH8VxwPFupAeguWx/On/wDCyfi2BhfFupf+BDD+tcXkUZFZ/V6P8kfuRftqv8z+9nY/8LG+Lbff8V6l/wCBLf41k6p4g8T+IpEl8WanPqkkQxG9w5kZR6AmsQEUu7FVGlTi7xik/JITqTas5NrzZZ3+9WLRv9Ij+tZ2ferFq/8ApEf1q3sJbn//0PA7t/8ASJPrVffRdt/pMn1qtu+tf1Gtj8Ce5Z30b6rb6N1MTLO+jfVbfRuoAs7qN9Vt1G6gPMtK/wAwzXuv7Jmqf2X+034UZm2pdvLAT67o2r5/3HOa6v4ca63hf4u+CvESnC2mqQtJ/uMdp/Q1y4+j7XCVaS6xkvwZ0YOr7PEU6j6ST/E/pfoqKKVZo45ozlZFDA+xGRUtfzMz92CiiikAUUUUAFFFFABRRRQAUUUUAFFFFABRRRQAUUUUAFFFFABRRRQAUUUUAFFFFABRRRQAUUUUAFFFFABRRRQAUUUUAFFFFABRRRQAUUUUAJ3r8D/2yNTTVP2nfEIVty2lra2/0KIM1++Hcmv5uPjLr3/CS/HLxprStuRtTnhRs8FYm2D+VfovhxR5sbVq9oW+9r/I+K43q2wtOn3l+Sf+Zw++k3VX3Ub6/Xz82LO73o3e9Vt9G+gLFjdS76rb6N9AFnfRvqvvpN1AFnfVi0b/AEmP61nb6sWj/wCkx/Wk9hrdH//R+crtv9Jk+tV91F2w+0yfWq24V/Ua2PwKW5Y3Uu6q+6jdTJRY3UbvSq+6jdQBY3Ubqr7qTcKALO41R1G4a2EOoIcNakSAjsV5qbdVW/Tz7CeAdXUgVUN9RO9j+mH4T66nib4YeFPECNvF9pFnMW9SYl3frmvQq+Kf2BvGq+L/ANnrTLN5N9xoFxNpkgzyoiOU/wDHTX2tX815xhXhsdVoP7MmvxP3PLcQq+Fp1l1S/IKKKK807QooooAKKKKACiiigAooooAKKKKACiiigAooooAKKKKACiiigAooooAKKKKACiiigAooooAKKKKACiiigAooooAKKKKACiiigAoopCcDNAHJ+O/EEHhXwXrniO5bZHp9jcT56cqhx+uK/mThu5L65vtTlOZLq5kmY+pkYmv3Y/bp8YJ4R/Zx8RhZNlxqpgsIB3YySqWx/wABBr8ILRRDaxp/eUE1+xeHOF5MFVxD+1K3/gK/4J+acbYjmxNOivsq/wB//DF7dS7qr7hRur9CPi7ljcaN1V91G6gCxupNxqDdSbvWgZY3Gl3VX3UbqBFjcKsWjD7TH9az9wqxaMPtMf1pPYa3P//S+Yrtv9Jkx61X3Clu2/0mT61W31/Ua2PwF7k+40u6q+4UbqYifcaXdVfdRuoAsbqN1Qb6M+9AE+6lVxnn0qtvpN3OaAP0K/4JreOzonxA8SfDG5kxFrNt/adspPHnW5w+B6lGz+Ffs+OK/mJ+FXj2f4V/GHwp4/ify4bbUIYLk9vs0x2S59tpNf04W1zDd28V3bsHinRZI2HRlcZBH1FfjfiJgPZY+OKS0qL8Vo/wsfp3BeM9pg5Yd7wf4PVfqT0UUV+fn2IUUUUAFFFFABRRRQAUUUUAFFFFABRRRQAUUUUAFFFFABRRRQAUUUUAFFFFABRRRQAUUUUAFFFFABRRRQAUUUUAFFFFABRRRQAUh9KWoppo7eGS4mYJHEpdmPQKoyT+VNAfkF/wUx8dR3+veEfhhaTbvsyyanexg8AyfJEGH0BP41+cBbACD+EYrv8A43+Pj8Vvjd4t8bB91pLdmGx5yBbQfu0A+oXP1Necb8nNf0dkWA+pZdRwz3Su/V6v/I/Ec3xn1rGVK62bsvRaIsbvWjcar7qN1eqeaWN1G6q24Uu6gZY3Ubqr7hRuAoAsbqQNUG71o3CgCxuqxZt/pMefWs/dVmzb/SY/rSew1uf/0/lK7b/SZPrVfd9aLtj9pk+tV91f1KkfgD3LG6jdVfdRuFAFjd9aN31qvvNG6iwFjdRu+tVt1G407CLO760bqr76N1ICLUYUu7KSJudoJH1r96/2EPi2Pif8CdN0/UJ/N1rwuf7LvQxy5RMmBz3+aPAz6qa/BkMM89O9fUH7FHxfHwg+O1ppmpzeVonjDGnXRY4jjlY5hlPYYfgn0Jr5vi7KnjssnGC9+HvL5br5r8bHvcOZgsJjoyk/dl7r+ez+8/oZFFIOvsaWv5+P2IKKKKACiiigAooooAKKKKACiiigAooooAKKKKACiiigAooooAKKKKACiiigAooooAKKKKACiiigAooooAKKKKACiiigAooooAK+Tf20fi5/wqL4E6vfWcgTVdcxo+njPzeZcgh2H+6mT9cV9Y96/Af9vX4vj4qfGseCdKn8zQfBIa2O05STUG5mf0JTAQfQ19TwflP17MoKa9yHvS9Fsvm7I8DiTMfqmCk4v3paL59fkj440yA2dkkTffOSx7nPNX91Vy5Jz6cUbq/fpO7uz8eSsrFjdRuqvupN1SMs7qN31qvuo3UCLG6jdVffRuoGWN1G6q26l3UAWN31qzaN/pMf1rO3VYs2/wBJj+tDWgLc/9T5CvGP2mT61X3UXbf6TJ9ar7zX9TrY/AHuWN1G6q+6jdRYRY3UbqrbjRuoAs7qNxqtuNG6gCzu+tG6q26l3UAWN1UNRikmgE1uxS5hIeN1OCpXkEH2NT7qA+D/ADpptO4NXVj+hj9jj46RfHL4O2OoXkgbXtCK6Zqqn7zTQqAk2PSVef8AeBr6xr+bH9lP45S/s9/Gay1a/lZfC3iJk07V4wflRZG/d3GOmYn5P+zkV/SRBNDcwx3Nu6yQzIro6HcrKwyCCOCCOQa/BOMsj/s/HOVNfu56x/VfJ/hY/XuGc1+uYRKb9+Oj/R/P87k1FFFfJH0QUUUUAFFFFABRRRQAUUUUAFFFFABRRRQAUUUUAFFFFABRRRQAUUUUAFFFFABRRRQAUUUUAFFFFABRRRQAUUUUAFFFRySRwxtNKwSNFLMzHAAHJJPYAUAfOX7VXxvtPgP8HtW8VJKo1m7RrHRoT96S9mBCsB3EY+c/T3r+cGwN06zX+oSNNeX8rXM8jcs0shLOSfcnNfTv7Yvx7P7QHxhaDRLjzPCHhFpLXTMfduZ+BPce4Zhhf9kD1r5oL5ORwO1fvvB+Sf2dgV7RfvJ6y8l0Xy3fmz8g4lzX67i2oP3IaLz7v+uhOGpd31qtuNLur6o+eLG6jdVfdRuosBY3Ubqr7qTdQkBZ3Ub6r7vSk3GiwFndRuqtuo3GgCzu+tWbR/8ASY/rWduqxaN/pMf1oew1uf/V+Mrtv9Jk+tVtwp143+lSf71VS1f1Otj8Ae5Y3Gjce9QbqTdTEWd1G6q+6jd9aALG6jdVfdRuoAn3UbjVctS7qAJy1G6oN1JuoALuCO9t3tZQCGBA9s1+x/8AwTp/aUk8VaE/wH8cXe7XfD0WdGmmb57zT1/5Z5P3ng7dyn+7X44bvzqbTtb1/wAJeINM8c+DrprLXdDuEurSZDj5oz91h3VhwwPUGvIzzJ6eZ4OWFno94vs/8nsz08ozKeBxMa0dtmu6/rY/rTGe9LXzl+zH+0P4c/aM+HFt4q00rbaxaBbbWtN3fPaXYHOB1Mcn3kbuOOoNfRtfzti8LVw1aVCsrSi7NH7PQr061NVaTvFhRRRXObBRRRQAUUUUAFFFFABRRRQAUUUUAFFFFABRRRQAUUUUAFFFFABRRRQAUUUUAFFFFABRRRQAUUUUAFFFFACV+aP/AAUO/aSfwB4Tj+DXgq72+J/FER+3PC37yy008MSRyrzcqO+3J7ivqv8AaU/aB8N/s7/Dq68W6ttudUuA1vpGnbsPd3ZHA9RGn3nbsOOpFfzba54k8R+OfE+p/EHxpdNe65rUzXE8r/w7vuoo/hRFwFHYCv0Pgbhx4mssfiF+7g9P70v8l189O58dxVnaw9N4Si/fktfJf5so2dvHZWyW0Xbkn3PWrO71qDdRur9l82fmBPu9KXdVfdSbqALO6jdVbdRuoAs76N1V91G6gCxuFJvqvuo3UAWNwpd1V91G6gCxuqxZt/pMf1rP3VYs2H2qPH96k9hrc//W+I7xv9Kk/wB6q26nXj/6VJ/vVV3V/U62PwB7ljdRuqvuo3UxE+4Uu6q+6jcKALG4UbhVfdRuoAsbhSbqg3UbqALO7FJvqvuo3UAWNwoD4OR+NV93FG6gD0f4P/GDxf8As+fEG2+I/gpy8bYh1TT2J8m9tM5ZHH94dVbqp5Ff0pfCD4t+D/jZ4G0/x94KuRNZ3iASwsR5ttMMb4ZQOjqfzHIr+WYMOVPKnqK9o/Z4/aG8X/sx+N/+Eh0Uyah4a1F1XWNILfJKg/5aR9llQcqe/Q8V8hxXwvHM6XtqOlaK0/vLs/Ps/l6fTcO59LBVPZVXem/wfdfqf1A9aK4D4Z/E3wd8XfB1j458C36X+mX6BgVOHifHzRyL1SRDwQf5V39fhVWlOnN06is1o0z9YhOM4qcHdMKKKKzKCiiigAooooAKKKKACiiigAooooAKKKKACiiigAooooAKKKKACiiigAooooAKKKKACiiigAriviJ8QvCnws8Hal478a3yafpOlwmWaVzyT/CiDqzueFUck1c8aeNfC/w88MX/AIx8ZahDpekaZEZri5nbaqqOgHdmY8Ko5J4FfzjftQ/tOeJf2pPF2R52meA9Hmb+ydLY4Nyw4+03AHBdh91eiDjrk19Pwzw3VzWvrpSj8T/Reb/DdniZ1nVPAUu83sv19Dkvjp8cPEn7SHxIuviBr4ktdIgzb6HprNlba1U8Ejp5kn3nPrx2ry0vk57elVy/QLwoGAKN1fvlChTo040aStGKsl2R+P16061SVWo7t6sn3Uu4VX3Ubq1MixuFJuqDdRuoAsbhRuFV91G6gCxuo3VX3UbqALG4Ub6r7qNwoAsbqNwqvuo3UAWN/FWbNv8ASo/rWduqzZt/pUf+9Sew1uf/1/hS9b/SpM/3qrbsU69b/Spf96qu73r+p1sfgD3LG7mjdz1qvu96N3vTEWN3ekLVBu96XfQBPu96TdUG73o3e9AFjdSbqh3e9G6gCfd70m7NQFuaN1AFjdjvRu96r7u9G/PFAE+6jeMFWAKnqDzUO6k30Ae1/AD9obx5+zN4tGu+GJGvvDt7Iv8AaujO37qeMHl0/uSqPusPoeK/oz+DXxp8B/HXwbb+NPAN+tzbyAJc2zEC4tJsZaKZOqsOx6MORX8sIYcg8qeo9a7j4VfFf4hfAbxfH44+GN8beXIW8sJCWtLyEHJjmTuD2IwynkGvkuJ+FKOaR9tStGsuvSXk/wBGfS5DxDUwMvZVNab6dvT/ACP6wKK+Tv2Zv2u/ht+0lo4i0uUaT4qtIwdQ0O5cCaMjhnhJx5sRPRhyOjAV9YfWvw7GYKvharoYiLjJdGfquHxFOvTVWk7pi0UUVymwUUUUAFFFFABRRRQAUUUUAFFFFABRRRQAUUUUAFFFFABRRRQAUUUUAFFFJQAucV5z8Ufiv4E+DfhO58Z/EHVItM063B27zmSaTHEcSfedz2A/HivHP2lf2tfhv+zfojDWJ11TxPdRk6fodu4M8rHo8pGfKiB6seT0UGv57/i38X/iL8fvFjeMviZfGVVJ+xabEStpZxk8JFHnH1Y5Ynqa+04a4Pr5i1Xr3hR79ZeUf89j5rO+I6WCXs6fvVO3Rev+R6T+0r+1B42/al8Rh77zNG8DabMW0zRQ3MpHAnuSOHkI6Donb1r5+3AAIg2oOgHFQb+gUYUdAKN2a/bcLhKOGoxoYePLFbL+uvmflmKxVXE1HVrO7ZOGpd3vVfd2pd1bnOThvejPvUG+k3e9AFjdRu4qvu96N3vQBPuo31Bu96N3NAFjd3o3e9V93NLuoAm3Uu+q+6jd70AWN3vRu96r7vel3UAT7verNm3+lRf71Z2ferNk3+lxf71J7DW5/9D4HvW/0qX/AHqq7qdet/pcv+9VXca/qmK0PwB7ljdRuqDdSbjRYRY3UbqgL0BqNAJ91JuqHdSbqALG6jcar7jRu9aALG40mTUG40bvzosBY3Ubqg3Gk3GmBPuNG6oNxo3etICfdRuI5qDcaXdQwJrOfUtH1a18SeGb640nWbBxLbXlpIYpY3XoQyn8x0NfrT+zT/wUtdJLXwR+0hGLeTKxQeJ4ExE3Yfa4lHyn1kXj1XvX5HbjTJkiuUMdyodSMZPOK8vNclwmZUvZYqN+zW69H+mx6WXZticFPmoy06roz+vfRta0jxFpdtrWg3kGoWF4glgubaQSxSI3QqykgitIHNfysfBb9on4y/s66iLr4d6w91o7OGudEvyZbKUd9qk5jY/3kwfrX7R/AP8A4KJ/Bf4vG20LxbIfBPiSTCG21FgLOaTpiG5OF57B9p+tfj2d8EY3At1KK9pT7rdeq/y0P0rK+JsLikozfLLs9vkz9BaKhhmhuIUuLaRZopAGR0YMrA9CCOCKlyO9fGWPpBaKKKQBRRRQAUUUUAFFFFABRRRQAUUUUAFFFFABRRSZ7UALRUM88NtC9xcyLDFGCzu7BVVR1JJ4Ar4C+Pf/AAUR+DXwk+06J4TkPjTxFHuQQaewNlDIOMTXAyOD1CBj7iu7AZZisbU9lhYOT8v1eyOXF42hhoc9eSSPvPVNU03RNPn1XWbqGxsrVDJNcXEgiijRepZmIAA96/Iv9pf/AIKW21o954H/AGco11K8w0UviWZd1rCeh+zRsP3hHZ2+X0B61+cHxp/aO+M37RN60nxA1mS10UOXt9GsCYbKMdtyA5kYD+JyTXjEEcVqgitlCAdxxmv1fIeAKGHarZi1OX8q+Fevf029T4DNuL6lVOng1yrv1+XYv6hd6trus3XifxXf3Gsa1fuZbm8upDLJI7dSSf0A4Haoy5b/AAqDdRur9DSsrI+JlJyd2WN1G6q5Y0u6mIn3UmTUG40u6hoCbcaXdVfce9Lu9aLAT7qN1V9xo3GiwFjdRuqDdRuNGgE+6k3God1JuNAFjdRuqDfijdQBPuNG6q+40bjRYCxuq1ZN/pUX+9WduNWbJv8AS4v96k9hrc//0fz4vW/0uX/eqruqW9Yfa5f96qu4V/VS2R+APclDUbqi3Cl3CmIk3Uu73qLcKTcKAJt2KTdUW4Uu4etAEob3pN1RbhRuFICbd70m6otwo3CmBLuo3VFuFG4UMCXdRuqLcKNwoAl3Ubqi3CjcKAJNxoLGo9wo3CgCUORz/wDqqrdWdpfD/SE5PccVNuFJuFG2wHu3wh/ah+PvwFaG38F+IpNQ0WNwx0fUc3NqR3C7vnjyP7hFfqb8I/8Agqb8KvEvl6Z8WtMufBuoYAa4QNd2Tt6govmIPqp+tfh7uI5U4qORYZlKyxqc9yMmvn804Yy7MG3Wp2l/NHR/5P53PbwHEGMwmkJXj2eqP62vA/xM+H3xJ05NV8B6/Y61bOM5tZldh/vJkOv4gV3XNfx3aRd634bvl1Twnq97pN6hystpO8DA/VCK+v8AwF/wUC/am+H8UNnf6taeJrGHA8vU4BJMVHbzl2v+ZNfBZh4bV4vmwVVSXaWj+/VfkfW4PjWjJWxMGn5a/wBfif0pZFLkV+Ovgv8A4KzaHIkUHxC8EXNpJwJJ9OuBInuRHIAfw3V9b+C/2/8A9l/xkEB8Upo0z4/d6rGbYg+7HK/rXyWL4VzXDfxKDt3Wv5XPocNnuAr/AAVV89PzPtOivL9J+Nfwe1xVfR/Gug3Qbp5WowE/lvzXbWviDQb4BrLVLS4B6eVPG4P/AHyxrxJ4erDScWvVM9ONaEvhkmbVFRq8bjKOGHsQaf8AjWJoLRUbSxRjLuqj1JArHu/Enh6xBa91WytwOpluI0/mwqlBvRCcktzcpMivL9W+Nnwe0NGk1fxroNqF6+ZqMAP5b814H4u/b7/Zb8IBxJ4ui1SRM/JpkbXJJHYFRj9a7aGVYyu7UaUn6JnNVx2Gpq86iXzR9mE4pa/H7xz/AMFZvCcCyW/w18HXuoychLnUpBbxfXy03N+or4x8e/8ABQX9qT4gpLaadqln4XspMjy9LhEcu0/9Nn3P+RFfS4LgLNq9nUioL+8/0V2eJieK8BS0jJyfkv8AOx/Qv42+JXgH4cac+q+OtfsdFtkGd11MqMf91M7m/AGvzs+L3/BUr4UeGRLpfwl0648ZamAQtw4a0sUb1JYCR8egUfWvw71i913xNevqfizV73VbyQlnku53nYk+7E1XjWCIBYolGO+MGvtst8O8DRtLFydR9tl/n+J8vjeNMTUvHDxUV33f9fI99+Lv7Ufx8+PDyweMfEUlho8jZGkWGba0A7BgvzPgd3JrwO2tLWzH7lPm7k81IXz945o3Cvu8PhqWHpqlQiox7LQ+Sr4irWlz1ZNvzJS+eTRuqLcKXcK2MSQNRuqLcKNwoAm3e9Ju96i3Cl3CiwEm70oDVFuFG4UATbqN3vUO4UbhQBLupd3vUW4Um4UAS7vegvUW4UbhQBLupd3vUO4Uu4UASbqN3NRbhRuFAEu73o3VFuFG4UAS7qtWTf6XF/vVQ3CrVk3+lxf71KWw1uf/0vzrvm/0uX/eqtuFS3pH2qXn+Kqu4V/VUdkfgDJd1G6o8ijcKoQ/dS7hUe4CjIoAk3Ck3CmZFGRQA/dS7hUeRQCDQBJkUbhUW4Uu4UgJNwpNwpm4UZHrQBJuFJupmR60ZFMCTd3o3VGGBpNwpASbqXcKi3Cl3CmBJuo3Co8ijcKAJN1Ju9aj3ClyKAHlqUOR0/Wo8ijIoAkZlk4kUMPpVR7HTpPvW6n8KnyKTdQFyqmmwRENbMYD2KnH8q3LXWfFdhj+z9dvLfHTy53X+RrO4pMilJKWktRqTWqZ19v8R/ixZnNj4y1WEjptu5B/7NV4fF/46dP+E/1kD/r8k/xrgsjpSkisXhqL1cF9yNo4qrHaTOvufiP8WL7/AI/fGWqz5677qQ/+zVz9zq/im+yL/XLucHrvmdv5mqGRSZFXGlTj8MUvkiJVZy+JlRtNgkbdcsZz/tnOfzqVLDTU6W65+lT7hRkVo2yLsepWMYjUAfSlLk9f0qPIoyKQh+QKNwpmRRkUwH7qXcKj3CjcKQD91LuFRgg0bhTAk3CjcKjyPWjIoAk3Ck3elM3CjIoAk3CjcKjyKNwoAkyKTdTMilyKAHbqXcKjyKMj1oAfupd1MyKTIoAfupd3FR7h60m4UASbhS7hUeRRuHrQBJuFJupmR60m4UASbhVuxb/S4v8AeqhuFW7Jv9Li/wB6plsxo//T/OC+Yfa5f96qu4VNet/pcv8AvVTzX9Vx2R/P73Ji1G4VFnijdTAlBBo3Cot1G6gRMGpN1RbqN1AyXdRuqLdRuoAl3CjcKi3UbqAJdwpNwqPdRuoAlDCjdUO40u6gCXcKNwqLdSZNAE24UbhUW6jdQBNu96TdUW6jdQBLkUbhUW40bqBEu4Uuah3UbqAJd1GeKi3UbqAZLu96N1RbqN1AyXNG6ot1G6gCXcKNwqIN60bqBE273pNwqIt6UbqBku4Ubveot1G6gCXcKMiot1G6gCXcKN1RbqN1AiXdRkVFupNxoGTbhRkVFuoLelAiXcKN1RbqN1AEuaNwqItRuoGS7qXPHWod1G6gRLuFG6ot1G6gZLuFG6ot1G6gCXcKXOah3cUbqBEu4YoyKj3Ck3UAS7qMiodxpd1AybOas2Tf6XF/vVQ3VasT/pkX+9SlsC3P/9T8175v9Llx/eqruNS3xP2uX/eqruNf1Wtj+fpbsk3Gl3GosmgE0xEhJpd1RZNJnNAXJdxo3Go9xo3GgLku6kyaZupMmgCXcaNxqLcaMmgCTcaXdUWeMUZIoAk3GgNUe40E5oAk3Gl3VEDRk0ASbjRk1GTmkoH6k26kzUeTRuNArkm40bjUeTRmgCTJoyaizzS7jQBJuNLuNRZJpM0Bcl3Gjcaj3Gjd60DuiTcaASKj3Uu6gVx+aMmo8k0ZPSgCTJo3Gos0uTQBJk0u41Fk0E0Bcl3Ubqhzil3GgGS7qTcaj3ZozQBJuNGTUeTRk0BckyaXcaiyaQHmgCXcaXdUOaKB6Eu40ZNR7uKMnFAEmT1pd1Q5zTgaBXJNxpMmoyc0ZoC5JuNLuNRZ70ZNAEmTRuNR5PWl3UBcfuNLuqLJo3GgCTJpdxqIHFLuoC4/cat2J/0uLP8AeqgGq3Yt/pcX+9Sew09Uf//V/M6+ObuX/eqrk1Nesftcv+9VXca/qtbH8/S3JNxoyajyaNxpkj+tFM3GjJoC5Jk0ZNR7jRk0APpcmo8mjJoAkyaMnrUeTRuoC5Jk0mabupMmgZJk0ZNR5NGTQIkyaMmo9xoyaAuSZzRk1Hk0ZNAXJMmjNR5NGTQA/NFMyaMmgB9LnvUeTS7qB3HZpcmo80ZNAEmaSmbjRuNAJj84pck0zdSZNAMkzmkpm40Z5oC5Jk0mc0zPejJoFcfRTNxoyaB3H0uTUeTRk0CH0ue9R5PSjJFAXH5zRTN1G40DH5xRTNxo3GgB9LntTN1NzQFyTNGaZk0bjQIkyaMmo8mjJoAkyaMmo80bjQBJk0maZuoyaAuSZNGTUeTS7jQFx3WimE5oyaB3H9aXPao8mjJoBsfnFW7E4u4v96qOatWJP2uL/epPYa3R/9b8xr4n7XL/AL1Vcmr91aXrXMjNAyktyDjiq/2K8/55NX9VJqx/PzUrkGaTOKn+xXn/ADyaj7Fef88mp3QuWRDk0ZNTfYrz/nk1H2K8/wCeTUXQ+VkOTRk1N9ivP+eTUfYrz/nk1F0LlZDk0ZNTfYrz/nk1H2K8/wCeTUXQ+VkOTRk1N9ivP+eTUfYrz/nk1HMhOLIcmjJqb7Fef88mo+xXn/PJqLoOVkOTRk1N9ivP+eTUfYrz/nk1F0FpEOTRk1N9ivP+eTUfYrz/AJ5NRdBysgzSk5qb7Fef88mo+xXf/PJqLoOVkOcUbjU/2K8/55NSfYrv/nk1HMhqLIcmjJqb7Fef88mpfsV5/wA8mouhcrIM5o3GpvsV5/zyal+x3n/PJqLofLIgyaMmpvsV5/zyal+xXn/PJqOZCtIgyaAcVN9iu/8Ank1H2K7/AOeTUXQ7SIck0ZzU32K8/wCeTUfYrz/nk1HMhWZDk0ZPWpvsV5/zyal+x3n/ADyai6Hysg3GgsamNldn/lk1H2K7/wCeTUXQcrIcmjPGKm+xXn/PJqPsV5/zyajmQuVkOTSZqx9jvP8Ank1J9ivP+eTUXQWkQ5NJntU/2K8/55NS/Yrz/nk1F0PlZBkijJqb7Fef88mo+xXn/PJqLoXKyHOaTNT/AGK8/wCeTUfYrz/nk1HMg5WQ5NGTU/2K8/55NR9ivP8Ank1F0HKyHdSZJqf7Hef88mo+xXn/ADyai6C0iDJoyam+xXn/ADyaj7Fd/wDPJqLoOVkGaXJqf7Fef88mo+xXn/PJqLofLIgyaSp/sV5/zyal+x3n/PJqOZBysgyaCc1N9ivP+eTUfYrz/nk1F0LlZDk0ZzU32K8/55NS/Yrz/nk1HMg5WQbjRuNTizvP+eTUn2K8/wCeTUXQcsiHJq1YnF3F/vVH9ivP+eTVYtbS9W5jZYWYhuAO9JtWGk7o/9k=;" vertex="1" parent="1">
          <mxGeometry x="-41.519999999999996" y="75" width="45" height="45" as="geometry" />
        </mxCell>
      </root>
    </mxGraphModel>
  </diagram>
</mxfile>
